<svg xmlns="http://www.w3.org/2000/svg" width="469" height="441" viewBox="0 0 469 441">
  <g fill="none" fill-rule="evenodd" transform="translate(3 3)">
    <g transform="translate(120.001)">
      <path fill="#CAE5F8" fill-rule="nonzero" d="M47.8173828,28.6891368 C47.8173828,31.4235255 47.2534236,33.7762038 46.1254883,35.7472423 C44.997553,37.7182808 43.4423927,39.3190135 41.4599609,40.5494884 C39.4091694,41.8255364 37.0678843,42.7483788 34.4360352,43.3180431 C31.8041861,43.8877074 28.8476727,44.1725353 25.5664062,44.1725353 L21.6015625,44.1725353 L21.6015625,57.8102306 C21.6015625,58.6305472 21.7553696,59.3426169 22.0629883,59.946461 C22.370607,60.5503052 22.9573524,61.0345126 23.8232422,61.3990978 C24.2789736,61.5813903 25.0195261,61.7750733 26.0449219,61.9801524 C27.0703176,62.1852316 27.9361944,62.321949 28.6425781,62.3903087 L28.6425781,65.0563243 L2.35839844,65.0563243 L2.35839844,62.3903087 C3.01920903,62.321949 3.89647891,62.2251075 4.99023438,62.0997814 C6.08398984,61.9744552 6.84732856,61.8206481 7.28027344,61.6383556 C8.16894976,61.2737704 8.75569519,60.8294389 9.04052734,60.3053478 C9.3253595,59.7812566 9.46777344,59.0520972 9.46777344,58.1178478 L9.46777344,23.9039806 C9.46777344,23.1064505 9.33105605,22.4171671 9.05761719,21.8361095 C8.78417832,21.2550519 8.19173633,20.7708445 7.28027344,20.3834728 C6.64224941,20.1100339 5.79346233,19.8650819 4.73388672,19.6486095 C3.67431111,19.432137 2.8824896,19.2897231 2.35839844,19.2213634 L2.35839844,16.5553478 L29.1210938,16.5553478 C35.3874011,16.5553478 40.0699715,17.5522453 43.1689453,19.5460704 C46.2679191,21.5398955 47.8173828,24.5875538 47.8173828,28.6891368 Z M34.4873047,30.4323009 C34.4873047,26.7864493 33.7524488,24.0805845 32.2827148,22.3146251 C30.8129809,20.5486658 28.198261,19.6656993 24.4384766,19.6656993 L21.6015625,19.6656993 L21.6015625,40.9596446 L23.0371094,40.9596446 C26.7741072,40.9596446 29.6166895,40.0994644 31.5649414,38.3790782 C33.5131933,36.658692 34.4873047,34.0097927 34.4873047,30.4323009 Z M83.3574219,37.4049571 C83.3574219,39.1367366 82.8219455,40.6577175 81.7509766,41.9679454 C80.6800077,43.2781733 79.2672614,43.9332774 77.5126953,43.9332774 C75.8492755,43.9332774 74.4422258,43.5117322 73.2915039,42.668629 C72.140782,41.8255258 71.5654297,40.5836763 71.5654297,38.9430431 C71.5654297,38.145513 71.6223953,37.5245883 71.7363281,37.0802501 C71.850261,36.6359119 71.952799,36.2200632 72.0439453,35.8326915 C70.995763,35.8782647 69.8906308,36.2428443 68.7285156,36.9264415 C67.5664004,37.6100387 66.5410201,38.5214879 65.6523438,39.6608165 L65.6523438,58.4254649 C65.6523438,59.222995 65.777668,59.8837957 66.0283203,60.4078868 C66.2789726,60.931978 66.7005179,61.3421301 67.2929688,61.6383556 C67.7942733,61.8890079 68.6088811,62.0997805 69.7368164,62.2706798 C70.8647517,62.4415791 71.6793595,62.5384206 72.1806641,62.5612071 L72.1806641,65.0563243 L49.3144531,65.0563243 L49.3144531,62.5612071 C49.8841174,62.515634 50.4594698,62.4529719 51.0405273,62.3732189 C51.6215849,62.2934658 52.1171854,62.1852313 52.5273438,62.0485118 C53.2565141,61.7978595 53.7578111,61.4104936 54.03125,60.8864024 C54.3046889,60.3623113 54.4414062,59.6787244 54.4414062,58.8356212 L54.4414062,38.9430431 C54.4414062,38.1227265 54.2477233,37.3878705 53.8603516,36.7384532 C53.4729798,36.0890359 53.0058621,35.5706492 52.4589844,35.1832774 C52.0488261,34.9098386 51.5304393,34.6819763 50.9038086,34.4996837 C50.2771779,34.3173911 49.5878944,34.1920669 48.8359375,34.1237071 L48.8359375,31.6285899 L65.1396484,30.7399181 L65.6523438,31.2526134 L65.6523438,36.2086681 L65.7890625,36.2086681 C67.361336,34.3857423 69.0304274,32.9559063 70.7963867,31.9191173 C72.5623461,30.8823283 74.4023342,30.3639415 76.3164062,30.3639415 C78.4355575,30.3639415 80.1388282,31.0190456 81.4262695,32.3292735 C82.7137109,33.6395014 83.3574219,35.3313791 83.3574219,37.4049571 Z M118.863281,35.1832774 C120.549488,36.7555509 121.83691,38.6354149 122.725586,40.8229259 C123.614262,43.0104368 124.058594,45.3802048 124.058594,47.9323009 C124.058594,50.4616104 123.619959,52.848468 122.742676,55.0929454 C121.865393,57.3374228 120.583667,59.2571627 118.897461,60.8522228 C117.097322,62.5612157 114.94972,63.8714239 112.45459,64.7828868 C109.95946,65.6943497 107.105485,66.1500743 103.892578,66.1500743 C101.112616,66.1500743 98.5548619,65.7513153 96.2192383,64.9537853 C93.8836146,64.1562552 91.8157642,62.9599781 90.015625,61.3649181 C88.2838455,59.8382177 86.9166717,57.9526572 85.9140625,55.7081798 C84.9114533,53.4637024 84.4101562,50.9515205 84.4101562,48.1715587 C84.4101562,45.43717 84.8487912,43.0047399 85.7260742,40.8741954 C86.6033573,38.7436509 87.9192621,36.8466972 89.6738281,35.1832774 C91.3600345,33.5882174 93.439278,32.3520644 95.9116211,31.4747814 C98.3839642,30.5974983 101.146795,30.1588634 104.200195,30.1588634 C107.390315,30.1588634 110.198718,30.5974983 112.625488,31.4747814 C115.052258,32.3520644 117.131502,33.5882174 118.863281,35.1832774 Z M110.113281,58.8698009 C110.614586,57.5937528 110.984862,56.0442892 111.224121,54.2213634 C111.46338,52.3984376 111.583008,50.2793182 111.583008,47.8639415 C111.583008,46.2688815 111.469077,44.445983 111.241211,42.3951915 C111.013345,40.3444 110.671552,38.7265776 110.21582,37.5416759 C109.668943,36.1061218 108.9113,34.9782034 107.942871,34.1578868 C106.974442,33.3375702 105.749682,32.9274181 104.268555,32.9274181 C102.650708,32.9274181 101.357589,33.3717496 100.38916,34.2604259 C99.4207308,35.1491022 98.6744818,36.2998068 98.1503906,37.7125743 C97.6718726,39.0114089 97.3414723,40.5323898 97.1591797,42.2755626 C96.9768871,44.0187354 96.8857422,45.8359373 96.8857422,47.7272228 C96.8857422,50.2109591 96.965494,52.2674164 97.125,53.8966564 C97.284506,55.5258963 97.6718719,57.1608083 98.2871094,58.8014415 C98.8112005,60.214209 99.5631461,61.3307343 100.542969,62.1510509 C101.522791,62.9713675 102.764641,63.3815196 104.268555,63.3815196 C105.635749,63.3815196 106.80924,62.9998503 107.789062,62.2365001 C108.768885,61.4731499 109.543617,60.3509281 110.113281,58.8698009 Z M164.999023,34.9781993 L157.479492,34.9781993 C158.368169,35.9808085 159.034666,37.0403682 159.479004,38.1569103 C159.923342,39.2734523 160.145508,40.4355501 160.145508,41.6432384 C160.145508,43.2155119 159.723963,44.6909203 158.880859,46.0695079 C158.037756,47.4480955 156.932624,48.5703174 155.56543,49.4362071 C154.175449,50.3248835 152.546233,51.0198635 150.677734,51.5211681 C148.809235,52.0224727 146.781261,52.2731212 144.59375,52.2731212 L139.022461,52.2731212 C138.749022,52.4782003 138.447105,52.8029041 138.116699,53.2472423 C137.786294,53.6915804 137.621094,54.1188223 137.621094,54.5289806 C137.621094,55.5315898 138.019853,56.2265698 138.817383,56.6139415 C139.614913,57.0013132 141.061838,57.2177824 143.158203,57.2633556 C145.231781,57.3089287 147.328114,57.3943771 149.447266,57.5197032 C151.566417,57.6450294 153.081701,57.7190846 153.993164,57.7418712 C155.314785,57.8102309 156.624994,58.0779691 157.923828,58.5450939 C159.222663,59.0122186 160.350581,59.6217502 161.307617,60.3737071 C162.3558,61.1712372 163.221676,62.190921 163.905273,63.4327892 C164.588871,64.6746574 164.930664,66.1044933 164.930664,67.7223399 C164.930664,69.4541194 164.514815,71.0833349 163.683105,72.6100353 C162.851396,74.1367356 161.581063,75.458337 159.87207,76.574879 C158.071931,77.7369942 155.912936,78.6370503 153.39502,79.2750743 C150.877103,79.9130983 147.761086,80.2321056 144.046875,80.2321056 C138.054006,80.2321056 133.49676,79.5029462 130.375,78.0446056 C127.25324,76.5862649 125.692383,74.3987868 125.692383,71.4821056 C125.692383,69.6819664 126.535473,68.2008614 128.22168,67.0387462 C129.907886,65.876631 132.528303,65.2386166 136.083008,65.1246837 L136.083008,64.7145274 C133.986643,64.0081437 132.351731,63.0682117 131.178223,61.8947032 C130.004714,60.7211948 129.417969,59.3597175 129.417969,57.8102306 C129.417969,56.8531945 129.651528,56.0442834 130.118652,55.3834728 C130.585777,54.7226622 131.183916,54.1416133 131.913086,53.6403087 C132.55111,53.2073638 133.325842,52.8370876 134.237305,52.5294689 C135.148768,52.2218501 135.912106,51.9768981 136.527344,51.7946056 L136.527344,51.418629 C133.451156,50.2793004 131.189623,48.8893403 129.742676,47.2487071 C128.295728,45.6080739 127.572266,43.6028856 127.572266,41.2330821 C127.572266,37.883456 129.116033,35.2060739 132.203613,33.2008556 C135.291194,31.1956372 139.204729,30.1930431 143.944336,30.1930431 C145.493823,30.1930431 146.992018,30.3240639 148.438965,30.5861095 C149.885912,30.8481551 150.985348,31.0817139 151.737305,31.2867931 L164.999023,31.2867931 L164.999023,34.9781993 Z M148.96875,41.5065196 C148.96875,38.8404907 148.547205,36.7327644 147.704102,35.1832774 C146.860998,33.6337905 145.562183,32.8590587 143.807617,32.8590587 C142.918941,32.8590587 142.144209,33.0698313 141.483398,33.4913829 C140.822588,33.9129345 140.287111,34.5224662 139.876953,35.3199962 C139.489581,36.0947397 139.22754,37.0004923 139.09082,38.0372814 C138.954101,39.0740704 138.885742,40.1393267 138.885742,41.2330821 C138.885742,43.7168185 139.318681,45.7561861 140.18457,47.3512462 C141.05046,48.9463063 142.280917,49.7438243 143.875977,49.7438243 C145.51661,49.7438243 146.775549,49.0260581 147.652832,47.590504 C148.530115,46.15495 148.96875,44.1269754 148.96875,41.5065196 Z M154.710938,70.2174571 C154.710938,69.4427137 154.494468,68.6736784 154.061523,67.9103282 C153.628579,67.1469781 152.660164,66.5260533 151.15625,66.0475353 C150.335933,65.9108158 148.985849,65.8196709 147.105957,65.7740978 C145.226065,65.7285246 142.645524,65.7057384 139.364258,65.7057384 C138.566728,66.3893356 137.900231,67.1982467 137.364746,68.1324962 C136.829262,69.0667457 136.561523,70.1946641 136.561523,71.5162853 C136.561523,72.0859496 136.721027,72.7125709 137.040039,73.3961681 C137.359051,74.0797652 137.860348,74.7177797 138.543945,75.3102306 C139.341475,75.9710412 140.230138,76.4894279 141.209961,76.8654064 C142.189784,77.2413848 143.670889,77.4293712 145.65332,77.4293712 C148.592788,77.4293712 150.837232,76.8597154 152.386719,75.7203868 C153.936206,74.5810582 154.710938,72.7467667 154.710938,70.2174571 Z M202.077148,56.887379 C201.279618,58.1862136 200.3169,59.4109735 199.188965,60.5616954 C198.06103,61.7124173 196.779304,62.6979218 195.34375,63.5182384 C193.81705,64.3841281 192.273283,65.0392323 190.712402,65.4835704 C189.151522,65.9279086 187.357106,66.1500743 185.329102,66.1500743 C181.956689,66.1500743 179.045748,65.6715635 176.596191,64.7145274 C174.146635,63.7574914 172.124357,62.4700694 170.529297,60.8522228 C168.934237,59.2343761 167.743656,57.3260293 166.95752,55.1271251 C166.171383,52.9282209 165.77832,50.5413632 165.77832,47.9664806 C165.77832,45.6422502 166.205562,43.4148962 167.060059,41.2843517 C167.914555,39.1538072 169.127922,37.2568535 170.700195,35.5934337 C172.249682,33.9755871 174.203601,32.6653788 176.562012,31.6627696 C178.920422,30.6601605 181.557928,30.1588634 184.474609,30.1588634 C187.664729,30.1588634 190.285146,30.5462293 192.335938,31.3209728 C194.386729,32.0957162 196.084303,33.166669 197.428711,34.5338634 C198.727546,35.832698 199.673174,37.365072 200.265625,39.1310314 C200.858076,40.8969907 201.154297,42.7483719 201.154297,44.6852306 L201.154297,46.9069103 L178.048828,46.9069103 C178.048828,51.5781576 178.948884,55.1328095 180.749023,57.5709728 C182.549163,60.009136 185.408835,61.2281993 189.328125,61.2281993 C191.470063,61.2281993 193.395499,60.6414539 195.104492,59.4679454 C196.813485,58.2944369 198.271804,56.8076354 199.479492,55.0074962 L202.077148,56.887379 Z M189.020508,43.8990978 C189.020508,42.5319034 188.952149,41.1305502 188.81543,39.6949962 C188.67871,38.2594421 188.439455,37.0859513 188.097656,36.1744884 C187.710285,35.1035195 187.180505,34.2946083 186.508301,33.7477306 C185.836097,33.2008528 184.98731,32.9274181 183.961914,32.9274181 C182.207348,32.9274181 180.805995,33.8160811 179.757812,35.5934337 C178.70963,37.3707863 178.139974,40.1848858 178.048828,44.0358165 L189.020508,43.8990978 Z M229.038086,63.4840587 C227.579745,64.1220827 226.018889,64.697435 224.355469,65.2101329 C222.692049,65.7228308 220.664074,65.9791759 218.271484,65.9791759 C214.716779,65.9791759 212.079273,65.1132991 210.358887,63.3815196 C208.638501,61.6497401 207.77832,59.1774341 207.77832,55.9645274 L207.77832,34.9781993 L201.625977,34.9781993 L201.625977,31.2867931 L207.915039,31.2867931 L207.915039,20.9303478 L219.023438,20.9303478 L219.023438,31.2867931 L228.59375,31.2867931 L228.59375,34.9781993 L219.091797,34.9781993 L219.091797,53.7086681 C219.091797,56.374697 219.462073,58.2659542 220.202637,59.3824962 C220.9432,60.4990382 222.270498,61.0573009 224.18457,61.0573009 C224.799808,61.0573009 225.654291,61.0117284 226.748047,60.9205821 C227.841802,60.8294358 228.605141,60.7268978 229.038086,60.6129649 L229.038086,63.4840587 Z M255.110352,63.4840587 C253.652011,64.1220827 252.091154,64.697435 250.427734,65.2101329 C248.764315,65.7228308 246.73634,65.9791759 244.34375,65.9791759 C240.789045,65.9791759 238.151539,65.1132991 236.431152,63.3815196 C234.710766,61.6497401 233.850586,59.1774341 233.850586,55.9645274 L233.850586,34.9781993 L227.698242,34.9781993 L227.698242,31.2867931 L233.987305,31.2867931 L233.987305,20.9303478 L245.095703,20.9303478 L245.095703,31.2867931 L254.666016,31.2867931 L254.666016,34.9781993 L245.164062,34.9781993 L245.164062,53.7086681 C245.164062,56.374697 245.534339,58.2659542 246.274902,59.3824962 C247.015466,60.4990382 248.342764,61.0573009 250.256836,61.0573009 C250.872073,61.0573009 251.726557,61.0117284 252.820312,60.9205821 C253.914068,60.8294358 254.677407,60.7268978 255.110352,60.6129649 L255.110352,63.4840587 Z M277.354492,65.0563243 L255.75293,65.0563243 L255.75293,62.5612071 C256.345381,62.515634 256.926429,62.4586684 257.496094,62.3903087 C258.065758,62.321949 258.555662,62.2080178 258.96582,62.0485118 C259.694991,61.775073 260.207681,61.3820105 260.503906,60.8693126 C260.800132,60.3566147 260.948242,59.6787244 260.948242,58.8356212 L260.948242,38.9430431 C260.948242,38.145513 260.765952,37.4448365 260.401367,36.8409923 C260.036782,36.2371481 259.581057,35.7529407 259.03418,35.3883556 C258.624021,35.1149167 258.003097,34.8528751 257.171387,34.6022228 C256.339677,34.3515705 255.582035,34.1920669 254.898438,34.1237071 L254.898438,31.6285899 L271.646484,30.7399181 L272.15918,31.2526134 L272.15918,58.3912853 C272.15918,59.1888153 272.330076,59.8667056 272.671875,60.4249767 C273.013674,60.9832477 273.503578,61.3990964 274.141602,61.6725353 C274.597333,61.8776144 275.09863,62.0599043 275.645508,62.2194103 C276.192386,62.3789163 276.762041,62.4928474 277.354492,62.5612071 L277.354492,65.0563243 Z M272.364258,18.4352306 C272.364258,20.1670101 271.697761,21.6424185 270.364746,22.8615001 C269.031732,24.0805817 267.453785,24.6901134 265.630859,24.6901134 C263.785147,24.6901134 262.195807,24.0805817 260.862793,22.8615001 C259.529778,21.6424185 258.863281,20.1670101 258.863281,18.4352306 C258.863281,16.7034511 259.529778,15.2223461 260.862793,13.9918712 C262.195807,12.7613963 263.785147,12.1461681 265.630859,12.1461681 C267.476572,12.1461681 269.060215,12.7613963 270.381836,13.9918712 C271.703457,15.2223461 272.364258,16.7034511 272.364258,18.4352306 Z"/>
      <g stroke="#E7713D" stroke-linecap="round" stroke-linejoin="round" stroke-width="6" transform="translate(278.185)">
        <path d="M1,7.83702126 C3.14397205,5.55801417 5.2879441,3.27900709 7.43191616,1" transform="rotate(-10 4.216 4.419)"/>
        <path d="M6.22570297,14.4724048 L8.63745447,14.4722005" transform="rotate(-10 7.432 14.472)"/>
      </g>
    </g>
    <g transform="translate(0 141.182)">
      <path fill="#CAE5F8" fill-rule="nonzero" d="M42.6962871,55.1728166 C39.7340327,55.1728166 36.9712023,54.8082369 34.4077129,54.0790666 C31.8442235,53.3498963 29.6738351,52.4840195 27.8964824,51.4814104 L25.538084,53.8739885 L22.6328105,53.8739885 L22.1884746,36.3398088 L25.1279277,36.3398088 C25.7887383,38.0032286 26.6318289,39.7577683 27.6572246,41.6034807 C28.6826204,43.449193 29.8675043,45.1011947 31.2119121,46.5595354 C32.601893,48.0862357 34.1570532,49.3280853 35.8774394,50.2851213 C37.5978257,51.2421573 39.6087105,51.7206682 41.9101543,51.7206682 C45.0091281,51.7206682 47.3845926,50.963026 49.0366191,49.447719 C50.6886456,47.9324119 51.5146465,46.0240651 51.5146465,43.7226213 C51.5146465,41.8313358 50.8139699,40.2419962 49.4125957,38.9545549 C48.0112215,37.6671136 45.8408331,36.5562848 42.9013652,35.6220354 C40.9872932,35.0067979 39.2270569,34.4371421 37.6206035,33.913051 C36.0141502,33.3889598 34.5045624,32.8534834 33.0917949,32.3066057 C29.8333151,31.0077711 27.4122781,29.1506933 25.8286113,26.7353166 C24.2449445,24.31994 23.453123,21.6197716 23.453123,18.6347307 C23.453123,16.7434452 23.8632752,14.9262433 24.6835918,13.1830705 C25.5039084,11.4398977 26.7001855,9.87334439 28.272459,8.48336349 C29.7763727,7.18452887 31.7018092,6.12496915 34.0488262,5.30465255 C36.3958431,4.48433595 38.9479009,4.0741838 41.7050762,4.0741838 C44.3938917,4.0741838 46.9117702,4.44446004 49.2587871,5.18502364 C51.605804,5.92558724 53.4514887,6.67183629 54.7958965,7.42379317 L56.8808574,5.37301192 L59.8544902,5.37301192 L60.1279277,21.9159807 L57.1884746,21.9159807 C56.5048774,20.138628 55.7016628,18.3214262 54.7788066,16.4643205 C53.8559505,14.6072149 52.8818391,13.0634478 51.8564434,11.8329729 C50.7399013,10.5113517 49.4524793,9.45748851 47.9941387,8.67135177 C46.535798,7.88521502 44.8268308,7.49215255 42.8671855,7.49215255 C40.4062357,7.49215255 38.3953509,8.18713258 36.8344707,9.57711349 C35.2735905,10.9670944 34.4931621,12.6874548 34.4931621,14.7382463 C34.4931621,16.6751049 35.1710525,18.258748 36.5268535,19.4892229 C37.8826546,20.7196978 39.9960774,21.8020437 42.8671855,22.7362932 C44.5533919,23.3059575 46.2737523,23.8756132 48.0283184,24.4452775 C49.7828844,25.0149419 51.3437412,25.5618114 52.7109355,26.0859025 C56.0149885,27.3619506 58.5271704,29.1221869 60.2475566,31.3666643 C61.9679428,33.6111416 62.828123,36.3967583 62.828123,39.7235979 C62.828123,41.8199625 62.3382191,43.847937 61.3583965,45.8075822 C60.3785739,47.7672275 59.0569725,49.3964429 57.3935527,50.6952775 C55.5706269,52.1308316 53.4629006,53.2359638 51.0703105,54.0107072 C48.6777205,54.7854507 45.8864072,55.1728166 42.6962871,55.1728166 Z M91.0878887,52.3017229 C89.629548,52.9397469 88.0686913,53.5150992 86.4052715,54.0277971 C84.7418517,54.540495 82.7138772,54.79684 80.3212871,54.79684 C76.7665818,54.79684 74.1290757,53.9309633 72.4086894,52.1991838 C70.6883032,50.4674043 69.828123,47.9950983 69.828123,44.7821916 L69.828123,23.7958635 L63.6757793,23.7958635 L63.6757793,20.1044572 L69.9648418,20.1044572 L69.9648418,9.74801192 L81.0732402,9.74801192 L81.0732402,20.1044572 L90.6435527,20.1044572 L90.6435527,23.7958635 L81.1415996,23.7958635 L81.1415996,42.5263322 C81.1415996,45.1923612 81.5118758,47.0836183 82.2524394,48.2001604 C82.993003,49.3167024 84.320301,49.874965 86.234373,49.874965 C86.8496105,49.874965 87.7040941,49.8293926 88.7978496,49.7382463 C89.8916051,49.6471 90.6549438,49.544562 91.0878887,49.4306291 L91.0878887,52.3017229 Z M125.773436,26.2226213 C125.773436,27.9544008 125.237959,29.4753817 124.16699,30.7856096 C123.096021,32.0958375 121.683275,32.7509416 119.928709,32.7509416 C118.265289,32.7509416 116.858239,32.3293963 115.707518,31.4862932 C114.556796,30.64319 113.981443,29.4013404 113.981443,27.7607072 C113.981443,26.9631772 114.038409,26.3422524 114.152342,25.8979143 C114.266275,25.4535761 114.368813,25.0377274 114.459959,24.6503557 C113.411777,24.6959288 112.306644,25.0605085 111.144529,25.7441057 C109.982414,26.4277028 108.957034,27.3391521 108.068357,28.4784807 L108.068357,47.2431291 C108.068357,48.0406591 108.193682,48.7014598 108.444334,49.225551 C108.694986,49.7496421 109.116532,50.1597943 109.708982,50.4560197 C110.210287,50.706672 111.024895,50.9174447 112.15283,51.088344 C113.280765,51.2592432 114.095373,51.3560847 114.596678,51.3788713 L114.596678,53.8739885 L91.7304668,53.8739885 L91.7304668,51.3788713 C92.3001311,51.3332982 92.8754834,51.270636 93.456541,51.190883 C94.0375986,51.11113 94.5331991,51.0028954 94.9433574,50.866176 C95.6725277,50.6155237 96.1738248,50.2281578 96.4472637,49.7040666 C96.7207025,49.1799754 96.8574199,48.4963885 96.8574199,47.6532854 L96.8574199,27.7607072 C96.8574199,26.9403906 96.663737,26.2055347 96.2763652,25.5561174 C95.8889935,24.9067001 95.4218758,24.3883133 94.874998,24.0009416 C94.4648397,23.7275027 93.946453,23.4996404 93.3198223,23.3173479 C92.6931915,23.1350553 92.0039081,23.009731 91.2519512,22.9413713 L91.2519512,20.4462541 L107.555662,19.5575822 L108.068357,20.0702775 L108.068357,25.0263322 L108.205076,25.0263322 C109.77735,23.2034065 111.446441,21.7735705 113.2124,20.7367815 C114.97836,19.6999924 116.818348,19.1816057 118.73242,19.1816057 C120.851571,19.1816057 122.554842,19.8367098 123.842283,21.1469377 C125.129725,22.4571656 125.773436,24.1490432 125.773436,26.2226213 Z M170.986326,53.156215 L154.682615,54.147426 L154.16992,53.6689104 L154.16992,49.1913713 L153.964842,49.1913713 C153.190098,49.897755 152.432456,50.5870385 151.691893,51.2592424 C150.951329,51.9314463 150.068363,52.5409779 149.042967,53.0878557 C147.880852,53.7030931 146.781416,54.1588177 145.744627,54.4550432 C144.707838,54.7512686 143.19825,54.8993791 141.215818,54.8993791 C137.775046,54.8993791 135.13754,53.8626056 133.303221,51.7890275 C131.468902,49.7154495 130.551756,46.7874189 130.551756,43.0048479 L130.551756,27.6239885 C130.551756,26.7353122 130.380859,26.0118494 130.039061,25.4535783 C129.697262,24.8953073 129.241537,24.3997068 128.671873,23.9667619 C128.216142,23.6249633 127.6237,23.3800114 126.894529,23.2318986 C126.165359,23.0837859 125.504558,22.9869444 124.912107,22.9413713 L124.912107,20.4462541 L141.489256,19.5575822 L141.865232,20.0702775 L141.865232,42.7997697 C141.865232,45.1467867 142.31526,46.8785402 143.21533,47.9950822 C144.1154,49.1116243 145.351553,49.6698869 146.923826,49.6698869 C148.541673,49.6698869 149.994295,49.2483417 151.281736,48.4052385 C152.569178,47.5621353 153.50911,46.6620792 154.101561,45.7050432 L154.101561,27.2821916 C154.101561,26.5074482 153.95345,25.8124681 153.657225,25.1972307 C153.360999,24.5819932 152.928061,24.0806962 152.358396,23.6933244 C151.948238,23.4198856 151.361493,23.2375957 150.598143,23.1464494 C149.834792,23.0553031 149.054364,22.9869444 148.256834,22.9413713 L148.256834,20.4462541 L164.833982,19.5575822 L165.346678,20.0702775 L165.346678,46.4569963 C165.346678,47.2545263 165.506181,47.9324167 165.825193,48.4906877 C166.144205,49.0489587 166.611323,49.521773 167.226561,49.9091447 C167.659505,50.1825836 168.223465,50.37057 168.918455,50.4731096 C169.613446,50.5756492 170.302729,50.6383113 170.986326,50.6610979 L170.986326,53.156215 Z M239.91992,53.8739885 L219.548826,53.8739885 L219.548826,51.3788713 C220.050131,51.3105116 220.574214,51.253546 221.121092,51.2079729 C221.66797,51.1623997 222.123694,51.0484686 222.488279,50.866176 C222.989584,50.6383103 223.308591,50.2566409 223.445311,49.7211565 C223.58203,49.185672 223.650389,48.4963885 223.650389,47.6532854 L223.650389,31.6913713 C223.650389,29.3443544 223.23454,27.5841181 222.40283,26.4106096 C221.57112,25.2371011 220.38054,24.6503557 218.831053,24.6503557 C217.85123,24.6503557 216.979657,24.8041627 216.216307,25.1117815 C215.452956,25.4194002 214.75228,25.8010695 214.114256,26.256801 C213.453445,26.735319 212.940755,27.2138298 212.57617,27.6923479 C212.211585,28.1708659 211.903971,28.581018 211.653318,28.9228166 L211.653318,47.2773088 C211.653318,48.0976254 211.75016,48.7641226 211.943846,49.2768205 C212.137532,49.7895184 212.496415,50.193974 213.020506,50.4901994 C213.385091,50.6952786 213.80094,50.8775684 214.268064,51.0370744 C214.735189,51.1965804 215.23079,51.3105116 215.754881,51.3788713 L215.754881,53.8739885 L196.238279,53.8739885 L196.238279,51.3788713 C196.671224,51.3332982 197.195307,51.2763326 197.810545,51.2079729 C198.425782,51.1396131 198.881507,51.025682 199.177732,50.866176 C199.65625,50.6155237 199.969561,50.250944 200.117674,49.772426 C200.265787,49.293908 200.339842,48.5875348 200.339842,47.6532854 L200.339842,31.6913713 C200.339842,29.3443544 199.923993,27.5841181 199.092283,26.4106096 C198.260573,25.2371011 197.069993,24.6503557 195.520506,24.6503557 C194.540683,24.6503557 193.66911,24.8041627 192.90576,25.1117815 C192.14241,25.4194002 191.441733,25.8010695 190.803709,26.256801 C190.142898,26.735319 189.630208,27.2138298 189.265623,27.6923479 C188.901038,28.1708659 188.593424,28.581018 188.342771,28.9228166 L188.342771,47.2773088 C188.342771,48.0748388 188.44531,48.7356395 188.650389,49.2597307 C188.855468,49.7838218 189.220048,50.193974 189.744139,50.4901994 C190.108724,50.6952786 190.524573,50.8775684 190.991697,51.0370744 C191.458822,51.1965804 191.954423,51.3105116 192.478514,51.3788713 L192.478514,53.8739885 L172.004881,53.8739885 L172.004881,51.3788713 C172.597332,51.3332982 173.178381,51.2763326 173.748045,51.2079729 C174.317709,51.1396131 174.807613,51.025682 175.217771,50.866176 C175.946942,50.5927371 176.448239,50.1996746 176.721678,49.6869768 C176.995117,49.1742789 177.131834,48.4963885 177.131834,47.6532854 L177.131834,27.7607072 C177.131834,27.0315369 176.938151,26.3194672 176.550779,25.6244768 C176.163408,24.9294863 175.69629,24.3883133 175.149412,24.0009416 C174.739254,23.7275027 174.220867,23.4996404 173.594236,23.3173479 C172.967606,23.1350553 172.278322,23.009731 171.526365,22.9413713 L171.526365,20.4462541 L187.830076,19.5575822 L188.342771,20.0702775 L188.342771,24.8896135 L188.47949,24.8896135 C189.117514,24.3199492 189.875156,23.6420588 190.752439,22.8559221 C191.629722,22.0697853 192.455723,21.4374674 193.230467,20.9589494 C194.07357,20.4120717 195.155916,19.9563471 196.477537,19.5917619 C197.799158,19.2271768 199.246084,19.0448869 200.818357,19.0448869 C203.416027,19.0448869 205.586415,19.6088461 207.329588,20.7367815 C209.072761,21.8647168 210.308914,23.3629114 211.038084,25.2314104 L211.345701,25.2314104 C212.006512,24.6161729 212.815423,23.8927101 213.772459,23.0610002 C214.729495,22.2292903 215.606765,21.5627931 216.404295,21.0614885 C217.292971,20.4918242 218.426586,20.0133133 219.805174,19.6259416 C221.183761,19.2385699 222.65917,19.0448869 224.231443,19.0448869 C227.672216,19.0448869 230.321115,20.0588742 232.178221,22.0868791 C234.035326,24.114884 234.963865,26.9973422 234.963865,30.73434 L234.963865,47.3456682 C234.963865,48.1887713 235.089189,48.8666617 235.339842,49.3793596 C235.590494,49.8920575 236.046219,50.2851199 236.707029,50.5585588 C237.071614,50.7180648 237.521642,50.8775684 238.057127,51.0370744 C238.592611,51.1965804 239.213536,51.3105116 239.91992,51.3788713 L239.91992,53.8739885 Z M278.091795,45.7050432 C277.294265,47.0038778 276.331547,48.2286377 275.203611,49.3793596 C274.075676,50.5300815 272.793951,51.5155859 271.358396,52.3359025 C269.831696,53.2017923 268.287929,53.8568964 266.727049,54.3012346 C265.166169,54.7455727 263.371753,54.9677385 261.343748,54.9677385 C257.971335,54.9677385 255.060394,54.4892276 252.610838,53.5321916 C250.161281,52.5751556 248.139003,51.2877336 246.543943,49.6698869 C244.948883,48.0520403 243.758303,46.1436935 242.972166,43.9447893 C242.186029,41.745885 241.792967,39.3590274 241.792967,36.7841447 C241.792967,34.4599144 242.220209,32.2325603 243.074705,30.1020158 C243.929202,27.9714713 245.142568,26.0745176 246.714842,24.4110979 C248.264329,22.7932512 250.218248,21.483043 252.576658,20.4804338 C254.935068,19.4778246 257.572575,18.9765275 260.489256,18.9765275 C263.679376,18.9765275 266.299792,19.3638935 268.350584,20.1386369 C270.401375,20.9133804 272.09895,21.9843332 273.443357,23.3515275 C274.742192,24.6503622 275.687821,26.1827362 276.280271,27.9486955 C276.872722,29.7146549 277.168943,31.5660361 277.168943,33.5028947 L277.168943,35.7245744 L254.063475,35.7245744 C254.063475,40.3958217 254.963531,43.9504737 256.76367,46.3886369 C258.563809,48.8268002 261.423481,50.0458635 265.342771,50.0458635 C267.484709,50.0458635 269.410146,49.4591181 271.119139,48.2856096 C272.828132,47.1121011 274.28645,45.6252996 275.494139,43.8251604 L278.091795,45.7050432 Z M265.035154,32.7167619 C265.035154,31.3495676 264.966796,29.9482144 264.830076,28.5126604 C264.693357,27.0771063 264.454101,25.9036154 264.112303,24.9921525 C263.724931,23.9211837 263.195151,23.1122725 262.522947,22.5653947 C261.850743,22.018517 261.001956,21.7450822 259.976561,21.7450822 C258.221994,21.7450822 256.820641,22.6337452 255.772459,24.4110979 C254.724277,26.1884505 254.154621,29.00255 254.063475,32.8534807 L265.035154,32.7167619 Z M324.740232,53.8739885 L304.164061,53.8739885 L304.164061,51.3788713 C304.597005,51.3332982 305.121089,51.2763326 305.736326,51.2079729 C306.351564,51.1396131 306.818681,51.025682 307.137693,50.866176 C307.616211,50.6155237 307.958005,50.250944 308.163084,49.772426 C308.368163,49.293908 308.470701,48.5875348 308.470701,47.6532854 L308.470701,31.6571916 C308.470701,29.3329612 308.043459,27.5841181 307.188963,26.4106096 C306.334466,25.2371011 305.075527,24.6503557 303.412107,24.6503557 C302.500645,24.6503557 301.651857,24.7870731 300.865721,25.0605119 C300.079584,25.3339508 299.310549,25.7327098 298.558592,26.256801 C297.897781,26.7125324 297.368001,27.1796502 296.969236,27.6581682 C296.570471,28.1366862 296.234374,28.5582315 295.960936,28.9228166 L295.960936,47.2773088 C295.960936,48.0748388 296.074867,48.7413361 296.302732,49.2768205 C296.530598,49.812305 296.906571,50.2167606 297.430662,50.4901994 C297.795247,50.6952786 298.250972,50.8775684 298.79785,51.0370744 C299.344727,51.1965804 299.880204,51.3105116 300.404295,51.3788713 L300.404295,53.8739885 L279.623045,53.8739885 L279.623045,51.3788713 C280.192709,51.3332982 280.768062,51.270636 281.349119,51.190883 C281.930177,51.11113 282.425777,51.0028954 282.835936,50.866176 C283.565106,50.6155237 284.066403,50.2281578 284.339842,49.7040666 C284.613281,49.1799754 284.749998,48.4963885 284.749998,47.6532854 L284.749998,27.7607072 C284.749998,27.0543235 284.567708,26.3593435 284.203123,25.6757463 C283.838538,24.9921491 283.360027,24.4338865 282.767576,24.0009416 C282.357418,23.7275027 281.839031,23.4996404 281.2124,23.3173479 C280.58577,23.1350553 279.896486,23.009731 279.144529,22.9413713 L279.144529,20.4462541 L295.44824,19.5575822 L295.960936,20.0702775 L295.960936,25.0263322 L296.097654,25.0263322 C296.735678,24.4566679 297.51041,23.773081 298.421873,22.975551 C299.333336,22.178021 300.176426,21.5286134 300.95117,21.0273088 C301.794273,20.4804311 302.899405,20.0133133 304.2666,19.6259416 C305.633794,19.2385699 307.092113,19.0448869 308.6416,19.0448869 C312.355811,19.0448869 315.141428,20.0987501 316.998533,22.206508 C318.855639,24.314266 319.784178,27.1112757 319.784178,30.5976213 L319.784178,47.3456682 C319.784178,48.1887713 319.909502,48.8609651 320.160154,49.3622697 C320.410807,49.8635743 320.877924,50.2623334 321.561521,50.5585588 C321.926107,50.7180648 322.376135,50.8775684 322.911619,51.0370744 C323.447104,51.1965804 324.056635,51.3105116 324.740232,51.3788713 L324.740232,53.8739885 Z M351.598631,52.3017229 C350.14029,52.9397469 348.579433,53.5150992 346.916014,54.0277971 C345.252594,54.540495 343.224619,54.79684 340.832029,54.79684 C337.277324,54.79684 334.639818,53.9309633 332.919432,52.1991838 C331.199045,50.4674043 330.338865,47.9950983 330.338865,44.7821916 L330.338865,23.7958635 L324.186521,23.7958635 L324.186521,20.1044572 L330.475584,20.1044572 L330.475584,9.74801192 L341.583982,9.74801192 L341.583982,20.1044572 L351.154295,20.1044572 L351.154295,23.7958635 L341.652342,23.7958635 L341.652342,42.5263322 C341.652342,45.1923612 342.022618,47.0836183 342.763182,48.2001604 C343.503745,49.3167024 344.831043,49.874965 346.745115,49.874965 C347.360353,49.874965 348.214836,49.8293926 349.308592,49.7382463 C350.402347,49.6471 351.165686,49.544562 351.598631,49.4306291 L351.598631,52.3017229 Z M373.842771,53.8739885 L352.241209,53.8739885 L352.241209,51.3788713 C352.83366,51.3332982 353.414709,51.2763326 353.984373,51.2079729 C354.554037,51.1396131 355.043941,51.025682 355.4541,50.866176 C356.18327,50.5927371 356.69596,50.1996746 356.992186,49.6869768 C357.288411,49.1742789 357.436521,48.4963885 357.436521,47.6532854 L357.436521,27.7607072 C357.436521,26.9631772 357.254232,26.2625006 356.889646,25.6586565 C356.525061,25.0548123 356.069337,24.5706049 355.522459,24.2060197 C355.112301,23.9325809 354.491376,23.6705392 353.659666,23.4198869 C352.827956,23.1692346 352.070314,23.009731 351.386717,22.9413713 L351.386717,20.4462541 L368.134764,19.5575822 L368.647459,20.0702775 L368.647459,47.2089494 C368.647459,48.0064795 368.818356,48.6843698 369.160154,49.2426408 C369.501953,49.8009119 369.991857,50.2167606 370.629881,50.4901994 C371.085612,50.6952786 371.586909,50.8775684 372.133787,51.0370744 C372.680665,51.1965804 373.250321,51.3105116 373.842771,51.3788713 L373.842771,53.8739885 Z M368.852537,7.25289474 C368.852537,8.98467423 368.18604,10.4600827 366.853025,11.6791643 C365.520011,12.8982459 363.942064,13.5077775 362.119139,13.5077775 C360.273426,13.5077775 358.684087,12.8982459 357.351072,11.6791643 C356.018058,10.4600827 355.351561,8.98467423 355.351561,7.25289474 C355.351561,5.52111524 356.018058,4.04001026 357.351072,2.80953536 C358.684087,1.57906046 360.273426,0.963832236 362.119139,0.963832236 C363.964851,0.963832236 365.548494,1.57906046 366.870115,2.80953536 C368.191736,4.04001026 368.852537,5.52111524 368.852537,7.25289474 Z"/>
      <g stroke="#E7713D" stroke-linecap="round" stroke-linejoin="round" stroke-width="6" transform="matrix(-1 0 0 1 15 6)">
        <path d="M4.21828025,11.3790405 C7.20710105,8.25269367 10.1959219,5.12634684 13.1847427,2" transform="rotate(30 8.702 6.69)"/>
        <path d="M1,20.3993998 L4.6494405,20.4001824" transform="rotate(30 2.825 20.4)"/>
      </g>
    </g>
    <g transform="translate(180.001 295.056)">
      <path fill="#CAE5F8" fill-rule="nonzero" d="M58.0371094,30 L39.4433594,30 C36.2304527,25.0781004 33.5587672,21.1588687 31.4282227,18.2421875 C29.2976781,15.3255063 26.6487789,11.9531441 23.4814453,8.125 L21.6015625,8.125 L21.6015625,22.8564453 C21.6015625,23.6767619 21.7553696,24.3717419 22.0629883,24.9414062 C22.370607,25.5110706 22.9573524,25.9895814 23.8232422,26.3769531 C24.2561871,26.5592457 24.9340774,26.7472321 25.8569336,26.940918 C26.7797898,27.1346038 27.5716113,27.2656247 28.2324219,27.3339844 L28.2324219,30 L2.35839844,30 L2.35839844,27.3339844 C3.01920903,27.2656247 3.89078235,27.1687832 4.97314453,27.043457 C6.05550671,26.9181309 6.82454199,26.7643238 7.28027344,26.5820312 C8.14616318,26.2174461 8.72721206,25.7560249 9.0234375,25.1977539 C9.31966294,24.6394829 9.46777344,23.9274132 9.46777344,23.0615234 L9.46777344,-11.1523438 C9.46777344,-11.9726604 9.34244917,-12.6562473 9.09179688,-13.203125 C8.84114458,-13.7500027 8.23730947,-14.2285136 7.28027344,-14.6386719 C6.55110313,-14.9348973 5.69092292,-15.1855458 4.69970703,-15.390625 C3.70849114,-15.5957042 2.92806274,-15.7438146 2.35839844,-15.8349609 L2.35839844,-18.5009766 L29.5654297,-18.5009766 C35.6494445,-18.5009766 40.2693527,-17.5496514 43.425293,-15.6469727 C46.5812332,-13.7442939 48.1591797,-10.8675323 48.1591797,-7.01660156 C48.1591797,-3.62140229 47.1850683,-0.892751196 45.2368164,1.16943359 C43.2885645,3.23161838 40.320658,4.84374419 36.3330078,6.00585937 C37.8824947,8.01107773 39.6883035,10.3352732 41.7504883,12.9785156 C43.8126731,15.621758 45.9602753,18.3219263 48.1933594,21.0791016 C48.8997431,21.9677779 49.8624614,23.0558204 51.081543,24.3432617 C52.3006246,25.6307031 53.377274,26.4225246 54.3115234,26.71875 C54.8356146,26.878256 55.5021118,27.0149734 56.3110352,27.1289062 C57.1199585,27.2428391 57.6953108,27.3111978 58.0371094,27.3339844 L58.0371094,30 Z M34.7607422,-6.05957031 C34.7607422,-9.29526357 33.8549895,-11.659335 32.043457,-13.1518555 C30.2319245,-14.644376 27.6513839,-15.390625 24.3017578,-15.390625 L21.6015625,-15.390625 L21.6015625,4.91210938 L24.1992188,4.91210938 C27.5488449,4.91210938 30.1464751,4.0348395 31.9921875,2.28027344 C33.8378999,0.525707373 34.7607422,-2.25421274 34.7607422,-6.05957031 Z M77.6494141,30 L56.0478516,30 L56.0478516,27.5048828 C56.6403024,27.4593097 57.2213513,27.4023441 57.7910156,27.3339844 C58.3606799,27.2656247 58.8505839,27.1516935 59.2607422,26.9921875 C59.9899125,26.7187486 60.5026027,26.3256862 60.7988281,25.8129883 C61.0950536,25.3002904 61.2431641,24.6224 61.2431641,23.7792969 L61.2431641,3.88671875 C61.2431641,3.08918872 61.0608742,2.38851213 60.6962891,1.78466797 C60.3317039,1.1808238 59.8759793,0.696616406 59.3291016,0.33203125 C58.9189433,0.0585923828 58.2980185,-0.203449268 57.4663086,-0.454101562 C56.6345987,-0.704753857 55.8769565,-0.864257471 55.1933594,-0.932617188 L55.1933594,-3.42773438 L71.9414062,-4.31640625 L72.4541016,-3.80371094 L72.4541016,23.3349609 C72.4541016,24.132491 72.6249983,24.8103813 72.9667969,25.3686523 C73.3085955,25.9269234 73.7984994,26.3427721 74.4365234,26.6162109 C74.8922549,26.8212901 75.393552,27.0035799 75.9404297,27.1630859 C76.4873074,27.3225919 77.0569632,27.4365231 77.6494141,27.5048828 L77.6494141,30 Z M72.6591797,-16.6210938 C72.6591797,-14.8893143 71.9926824,-13.4139058 70.659668,-12.1948242 C69.3266535,-10.9757426 67.748707,-10.3662109 65.9257812,-10.3662109 C64.0800689,-10.3662109 62.4907293,-10.9757426 61.1577148,-12.1948242 C59.8247004,-13.4139058 59.1582031,-14.8893143 59.1582031,-16.6210938 C59.1582031,-18.3528732 59.8247004,-19.8339782 61.1577148,-21.0644531 C62.4907293,-22.294928 64.0800689,-22.9101562 65.9257812,-22.9101562 C67.7714936,-22.9101562 69.3551366,-22.294928 70.6767578,-21.0644531 C71.998379,-19.8339782 72.6591797,-18.3528732 72.6591797,-16.6210938 Z M94.8691406,31.1621094 C92.6588431,31.1621094 90.4998478,30.8374056 88.3920898,30.1879883 C86.2843319,29.538571 84.6494199,28.8492875 83.4873047,28.1201172 L82.4619141,30.4443359 L79.7958984,30.4443359 L79.3515625,17.6953125 L81.8466797,17.6953125 C82.1884783,18.7207083 82.758134,19.8771094 83.5556641,21.1645508 C84.3531941,22.4519921 85.2646433,23.6083933 86.2900391,24.6337891 C87.361008,25.6591848 88.5857678,26.5250616 89.9643555,27.2314453 C91.3429431,27.9378291 92.8183515,28.2910156 94.390625,28.2910156 C96.4642031,28.2910156 98.0079702,27.88656 99.0219727,27.0776367 C100.035975,26.2687134 100.542969,25.0211673 100.542969,23.3349609 C100.542969,22.423498 100.315106,21.6715524 99.859375,21.0791016 C99.4036436,20.4866507 98.7770222,19.9739605 97.9794922,19.5410156 C97.0908159,19.0852842 96.1167045,18.6979183 95.0571289,18.3789062 C93.9975533,18.0598942 92.6930416,17.6725283 91.1435547,17.2167969 C89.5940678,16.7610654 88.2667698,16.2996443 87.1616211,15.8325195 C86.0564723,15.3653948 84.9114643,14.6305389 83.7265625,13.6279297 C82.7011667,12.7392534 81.8808625,11.6683005 81.265625,10.4150391 C80.6503875,9.16177759 80.3427734,7.66927949 80.3427734,5.9375 C80.3427734,2.72459331 81.6928576,0.126963037 84.3930664,-1.85546875 C87.0932752,-3.83790054 90.6308375,-4.82910156 95.0058594,-4.82910156 C97.0794375,-4.82910156 98.9877843,-4.61832893 100.730957,-4.19677734 C102.47413,-3.77522576 103.938145,-3.31380459 105.123047,-2.8125 L105.84082,-4.82910156 L108.438477,-4.82910156 L108.985352,6.82617188 L106.558594,6.82617188 C105.761064,4.45636836 104.39389,2.41130417 102.457031,0.690917969 C100.520173,-1.02946824 98.4352325,-1.88964844 96.2021484,-1.88964844 C94.4475824,-1.88964844 93.0690154,-1.52506875 92.0664062,-0.795898438 C91.0637971,-0.066728125 90.5625,0.947259131 90.5625,2.24609375 C90.5625,3.97787324 91.2973559,5.23111592 92.7670898,6.00585938 C94.2368238,6.78060283 96.2932811,7.50976221 98.9365234,8.19335938 C103.01532,9.2415417 106.000316,10.6713777 107.891602,12.4829102 C109.782887,14.2944427 110.728516,16.6015485 110.728516,19.4042969 C110.728516,23.1412947 109.2645,26.035146 106.336426,28.0859375 C103.408351,30.136729 99.5859611,31.1621094 94.8691406,31.1621094 Z M148.080078,0.126953125 C149.766284,1.69922661 151.053706,3.57909062 151.942383,5.76660156 C152.831059,7.9541125 153.275391,10.3238805 153.275391,12.8759766 C153.275391,15.4052861 152.836756,17.7921437 151.959473,20.0366211 C151.08219,22.2810985 149.800464,24.2008384 148.114258,25.7958984 C146.314119,27.5048914 144.166516,28.8150996 141.671387,29.7265625 C139.176257,30.6380254 136.322282,31.09375 133.109375,31.09375 C130.329413,31.09375 127.771659,30.694991 125.436035,29.8974609 C123.100411,29.0999309 121.032561,27.9036538 119.232422,26.3085938 C117.500642,24.7818934 116.133469,22.8963328 115.130859,20.6518555 C114.12825,18.4073781 113.626953,15.8951962 113.626953,13.1152344 C113.626953,10.3808457 114.065588,7.9484156 114.942871,5.81787109 C115.820154,3.68732659 117.136059,1.7903729 118.890625,0.126953125 C120.576831,-1.46810693 122.656075,-2.70425994 125.128418,-3.58154297 C127.600761,-4.458826 130.363592,-4.89746094 133.416992,-4.89746094 C136.607112,-4.89746094 139.415515,-4.458826 141.842285,-3.58154297 C144.269055,-2.70425994 146.348299,-1.46810693 148.080078,0.126953125 Z M139.330078,23.8134766 C139.831383,22.5374285 140.201659,20.9879648 140.440918,19.1650391 C140.680177,17.3421133 140.799805,15.2229938 140.799805,12.8076172 C140.799805,11.2125571 140.685874,9.38965869 140.458008,7.33886719 C140.230142,5.28807568 139.888349,3.67025332 139.432617,2.48535156 C138.885739,1.04979751 138.128097,-0.0781208984 137.159668,-0.8984375 C136.191239,-1.7187541 134.966479,-2.12890625 133.485352,-2.12890625 C131.867505,-2.12890625 130.574386,-1.68457476 129.605957,-0.795898438 C128.637528,0.0927778809 127.891279,1.24348252 127.367188,2.65625 C126.888669,3.95508462 126.558269,5.4760655 126.375977,7.21923828 C126.193684,8.96241106 126.102539,10.7796129 126.102539,12.6708984 C126.102539,15.1546348 126.182291,17.2110921 126.341797,18.840332 C126.501303,20.4695719 126.888669,22.104484 127.503906,23.7451172 C128.027997,25.1578847 128.779943,26.27441 129.759766,27.0947266 C130.739588,27.9150432 131.981438,28.3251953 133.485352,28.3251953 C134.852546,28.3251953 136.026037,27.943526 137.005859,27.1801758 C137.985682,26.4168256 138.760414,25.2946038 139.330078,23.8134766 Z M189.977539,2.34863281 C189.977539,4.0804123 189.442063,5.60139319 188.371094,6.91162109 C187.300125,8.221849 185.887379,8.87695312 184.132812,8.87695312 C182.469393,8.87695312 181.062343,8.45540786 179.911621,7.61230469 C178.760899,6.76920151 178.185547,5.52735195 178.185547,3.88671875 C178.185547,3.08918872 178.242512,2.46826394 178.356445,2.02392578 C178.470378,1.57958762 178.572916,1.16373892 178.664062,0.776367188 C177.61588,0.821940332 176.510748,1.18652002 175.348633,1.87011719 C174.186518,2.55371436 173.161137,3.46516357 172.272461,4.60449219 L172.272461,23.3691406 C172.272461,24.1666707 172.397785,24.8274713 172.648438,25.3515625 C172.89909,25.8756537 173.320635,26.2858058 173.913086,26.5820312 C174.414391,26.8326835 175.228998,27.0434562 176.356934,27.2143555 C177.484869,27.3852548 178.299477,27.4820962 178.800781,27.5048828 L178.800781,30 L155.93457,30 L155.93457,27.5048828 C156.504235,27.4593097 157.079587,27.3966475 157.660645,27.3168945 C158.241702,27.2371415 158.737303,27.1289069 159.147461,26.9921875 C159.876631,26.7415352 160.377928,26.3541693 160.651367,25.8300781 C160.924806,25.305987 161.061523,24.6224 161.061523,23.7792969 L161.061523,3.88671875 C161.061523,3.06640215 160.86784,2.33154622 160.480469,1.68212891 C160.093097,1.0327116 159.625979,0.514324854 159.079102,0.126953125 C158.668943,-0.146485742 158.150557,-0.374348047 157.523926,-0.556640625 C156.897295,-0.738933203 156.208012,-0.864257471 155.456055,-0.932617188 L155.456055,-3.42773438 L171.759766,-4.31640625 L172.272461,-3.80371094 L172.272461,1.15234375 L172.40918,1.15234375 C173.981453,-0.670582031 175.650545,-2.10041799 177.416504,-3.13720703 C179.182463,-4.17399607 181.022451,-4.69238281 182.936523,-4.69238281 C185.055675,-4.69238281 186.758945,-4.03727869 188.046387,-2.72705078 C189.333828,-1.41682288 189.977539,0.275054736 189.977539,2.34863281 Z M206.411133,31.1621094 C204.200835,31.1621094 202.04184,30.8374056 199.934082,30.1879883 C197.826324,29.538571 196.191412,28.8492875 195.029297,28.1201172 L194.003906,30.4443359 L191.337891,30.4443359 L190.893555,17.6953125 L193.388672,17.6953125 C193.73047,18.7207083 194.300126,19.8771094 195.097656,21.1645508 C195.895186,22.4519921 196.806635,23.6083933 197.832031,24.6337891 C198.903,25.6591848 200.12776,26.5250616 201.506348,27.2314453 C202.884935,27.9378291 204.360344,28.2910156 205.932617,28.2910156 C208.006195,28.2910156 209.549962,27.88656 210.563965,27.0776367 C211.577967,26.2687134 212.084961,25.0211673 212.084961,23.3349609 C212.084961,22.423498 211.857099,21.6715524 211.401367,21.0791016 C210.945636,20.4866507 210.319014,19.9739605 209.521484,19.5410156 C208.632808,19.0852842 207.658697,18.6979183 206.599121,18.3789062 C205.539545,18.0598942 204.235034,17.6725283 202.685547,17.2167969 C201.13606,16.7610654 199.808762,16.2996443 198.703613,15.8325195 C197.598465,15.3653948 196.453456,14.6305389 195.268555,13.6279297 C194.243159,12.7392534 193.422855,11.6683005 192.807617,10.4150391 C192.19238,9.16177759 191.884766,7.66927949 191.884766,5.9375 C191.884766,2.72459331 193.23485,0.126963037 195.935059,-1.85546875 C198.635267,-3.83790054 202.17283,-4.82910156 206.547852,-4.82910156 C208.62143,-4.82910156 210.529776,-4.61832893 212.272949,-4.19677734 C214.016122,-3.77522576 215.480137,-3.31380459 216.665039,-2.8125 L217.382812,-4.82910156 L219.980469,-4.82910156 L220.527344,6.82617188 L218.100586,6.82617188 C217.303056,4.45636836 215.935882,2.41130417 213.999023,0.690917969 C212.062165,-1.02946824 209.977225,-1.88964844 207.744141,-1.88964844 C205.989575,-1.88964844 204.611008,-1.52506875 203.608398,-0.795898438 C202.605789,-0.066728125 202.104492,0.947259131 202.104492,2.24609375 C202.104492,3.97787324 202.839348,5.23111592 204.309082,6.00585938 C205.778816,6.78060283 207.835273,7.50976221 210.478516,8.19335938 C214.557312,9.2415417 217.542308,10.6713777 219.433594,12.4829102 C221.324879,14.2944427 222.270508,16.6015485 222.270508,19.4042969 C222.270508,23.1412947 220.806493,26.035146 217.878418,28.0859375 C214.950343,30.136729 211.127953,31.1621094 206.411133,31.1621094 Z M261.467773,21.8310547 C260.670243,23.1298893 259.707525,24.3546492 258.57959,25.5053711 C257.451655,26.656093 256.169929,27.6415975 254.734375,28.4619141 C253.207675,29.3278038 251.663908,29.9829079 250.103027,30.4272461 C248.542147,30.8715843 246.747731,31.09375 244.719727,31.09375 C241.347314,31.09375 238.436373,30.6152392 235.986816,29.6582031 C233.53726,28.7011671 231.514982,27.4137451 229.919922,25.7958984 C228.324862,24.1780518 227.134281,22.269705 226.348145,20.0708008 C225.562008,17.8718966 225.168945,15.4850389 225.168945,12.9101562 C225.168945,10.5859259 225.596187,8.35857185 226.450684,6.22802734 C227.30518,4.09748284 228.518547,2.20052915 230.09082,0.537109375 C231.640307,-1.08073726 233.594226,-2.39094551 235.952637,-3.39355469 C238.311047,-4.39616387 240.948553,-4.89746094 243.865234,-4.89746094 C247.055354,-4.89746094 249.675771,-4.51009502 251.726562,-3.73535156 C253.777354,-2.96060811 255.474928,-1.88965527 256.819336,-0.522460938 C258.118171,0.776373682 259.063799,2.30874768 259.65625,4.07470703 C260.248701,5.84066638 260.544922,7.69204761 260.544922,9.62890625 L260.544922,11.8505859 L237.439453,11.8505859 C237.439453,16.5218333 238.339509,20.0764852 240.139648,22.5146484 C241.939788,24.9528117 244.79946,26.171875 248.71875,26.171875 C250.860688,26.171875 252.786124,25.5851296 254.495117,24.4116211 C256.20411,23.2381126 257.662429,21.7513111 258.870117,19.9511719 L261.467773,21.8310547 Z M248.411133,8.84277344 C248.411133,7.4755791 248.342774,6.07422593 248.206055,4.63867188 C248.069335,3.20311782 247.83008,2.02962695 247.488281,1.11816406 C247.10091,0.047195166 246.57113,-0.761716016 245.898926,-1.30859375 C245.226722,-1.85547148 244.377935,-2.12890625 243.352539,-2.12890625 C241.597973,-2.12890625 240.19662,-1.24024326 239.148438,0.537109375 C238.100255,2.31446201 237.530599,5.12856147 237.439453,8.97949219 L248.411133,8.84277344 Z"/>
      <g stroke="#E7713D" stroke-linecap="round" stroke-linejoin="round" stroke-width="6" transform="translate(267.999 7.126)">
        <path d="M4.21828025,11.3790405 C7.20710105,8.25269367 10.1959219,5.12634684 13.1847427,2" transform="rotate(30 8.702 6.69)"/>
        <path d="M1,20.3993998 L4.6494405,20.4001824" transform="rotate(30 2.825 20.4)"/>
      </g>
    </g>
    <path stroke="#E7713D" stroke-linecap="round" stroke-linejoin="round" stroke-width="6" d="M2.84217094e-14-1.42108547e-14C38.9738355 19.3279027 127.379494-26.5758662 118.589499 66.4396655M113.543293 56.4336918C111.945911 59.3786698 116.354634 72.0430108 117.916491 72.0430108 118.957728 72.0430108 122.185565 67.8546717 127.6 59.4779937 119.061852 57.3838242 114.792778 56.8602818 114.792778 57.9073666 114.792778 59.4779937 117.604119 68.5876311 118.541233 68.5876311 119.165976 68.5876311 118.645357 65.5510853 116.979377 59.4779937L119.165976 69.5300073 120.415461 59.4779937 120.415461 66.0746277 123.539173 61.6768717" transform="translate(291.001 212.056)"/>
    <g stroke="#E7713D" stroke-linecap="round" stroke-linejoin="round" stroke-width="6" transform="scale(-1 1) rotate(30 -759.205 -280.738)">
      <path d="M0.344528799,0.255131116 C25.9992615,25.6835019 66.1401904,41.2451477 93,44"/>
      <path d="M93.0073944,34.7016409 C91.410013,37.646619 95.8187359,50.3109599 97.3805922,50.3109599 C98.4218298,50.3109599 101.649666,46.1226209 107.064102,37.7459429 C98.5259535,35.6517734 94.2568795,35.128231 94.2568795,36.1753158 C94.2568795,37.7459429 97.0682209,46.8555803 98.0053348,46.8555803 C98.6300773,46.8555803 98.1094585,43.8190345 96.4434784,37.7459429 L98.6300773,47.7979565 L99.8795624,37.7459429 L99.8795624,44.3425769 L103.003275,39.9448209" transform="rotate(-100 99.864 42.506)"/>
    </g>
    <g stroke="#E7713D" stroke-linecap="round" stroke-linejoin="round" stroke-width="6" transform="translate(85.001 60.056)">
      <path d="M24.7023106,-2.84217094e-14 C-14.4033628,5.63002788 -4.72773225,61.5281618 37.2,84.4504182"/>
      <path d="M23.6955033,73.4412959 C26.3952502,83.0765744 28.2663669,87.8941019 29.3088533,87.8938784 C30.3513397,87.8936549 33.5839344,83.7580806 39.0066373,75.4871556 C29.4959835,72.6873771 24.7405457,71.804348 24.740324,72.8380683 C24.7399915,74.3886489 28.996839,84.4826683 29.9350767,84.4824671 C30.5605686,84.482333 29.8113929,80.9619427 27.6875496,73.921296 L30.5603691,85.4126813 L31.813481,75.4886979 L31.8120843,82.001136 L34.8277978,75.832625" transform="rotate(-60 31.351 80.157)"/>
    </g>
  </g>
</svg>
