<svg xmlns="http://www.w3.org/2000/svg" width="412" height="342" viewBox="0 0 412 342">
  <g fill="none" fill-rule="evenodd" transform="translate(4 3)">
    <g transform="translate(50.001)">
      <path fill="#25ACF5" fill-rule="nonzero" d="M34.1552734,21.0797618 C34.1552734,23.0328966 33.7524454,24.7133811 32.9467773,26.1212657 C32.1411093,27.5291504 31.0302805,28.6725309 29.6142578,29.5514415 C28.1494067,30.4629044 26.4770602,31.1220775 24.597168,31.5289806 C22.7172758,31.9358836 20.6054805,32.1393321 18.2617188,32.1393321 L15.4296875,32.1393321 L15.4296875,41.8805431 C15.4296875,42.4664835 15.5395497,42.9751047 15.7592773,43.406422 C15.979005,43.8377392 16.3981089,44.1836017 17.0166016,44.4440196 C17.342124,44.5742286 17.8710901,44.7125736 18.6035156,44.8590587 C19.3359412,45.0055438 19.9544246,45.1031991 20.4589844,45.1520274 L20.4589844,47.0563243 L1.68457031,47.0563243 L1.68457031,45.1520274 C2.15657788,45.1031991 2.78319922,45.0340266 3.56445312,44.9445079 C4.34570703,44.8549892 4.89094897,44.7451271 5.20019531,44.6149181 C5.83496411,44.3545001 6.25406799,44.0371205 6.45751953,43.6627696 C6.66097107,43.2884188 6.76269531,42.7675907 6.76269531,42.1002696 L6.76269531,17.6617931 C6.76269531,17.0921288 6.66504004,16.5997834 6.46972656,16.1847423 C6.27441309,15.7697012 5.85124023,15.4238387 5.20019531,15.1471446 C4.74446387,14.9518312 4.13818738,14.7768655 3.38134766,14.6222423 C2.62450793,14.4676191 2.05892114,14.3658949 1.68457031,14.3170665 L1.68457031,12.4127696 L20.8007812,12.4127696 C25.2767151,12.4127696 28.6214082,13.1248393 30.8349609,14.5490001 C33.0485137,15.9731609 34.1552734,18.1500597 34.1552734,21.0797618 Z M24.6337891,22.324879 C24.6337891,19.7206993 24.108892,17.7879387 23.059082,16.5265392 C22.0092721,15.2651396 20.141615,14.6344493 17.4560547,14.6344493 L15.4296875,14.6344493 L15.4296875,29.8444103 L16.4550781,29.8444103 C19.1243623,29.8444103 21.1547782,29.2299958 22.5463867,28.0011485 C23.9379952,26.7723012 24.6337891,24.8802303 24.6337891,22.324879 Z M59.5410156,27.3053478 C59.5410156,28.5423331 59.1585325,29.628748 58.3935547,30.5646251 C57.6285769,31.5005022 56.6194724,31.9684337 55.3662109,31.9684337 C54.178054,31.9684337 53.1730184,31.6673299 52.3510742,31.0651134 C51.52913,30.4628968 51.1181641,29.5758614 51.1181641,28.4039806 C51.1181641,27.8343163 51.1588538,27.3907986 51.2402344,27.0734142 C51.321615,26.7560298 51.3948564,26.458995 51.4599609,26.1823009 C50.7112593,26.2148531 49.9218792,26.4752672 49.0917969,26.9635509 C48.2617146,27.4518346 47.5293,28.1028697 46.8945312,28.9166759 L46.8945312,42.3199962 C46.8945312,42.8896605 46.9840486,43.361661 47.1630859,43.7360118 C47.3421233,44.1103627 47.6432271,44.4033285 48.0664062,44.6149181 C48.424481,44.7939554 49.0063436,44.9445073 49.8120117,45.0665782 C50.6176798,45.1886492 51.1995425,45.2578216 51.5576172,45.2740978 L51.5576172,47.0563243 L35.2246094,47.0563243 L35.2246094,45.2740978 C35.6315125,45.2415455 36.0424784,45.1967868 36.4575195,45.1398204 C36.8725607,45.082854 37.226561,45.0055436 37.5195312,44.9078868 C38.0403672,44.7288495 38.3984365,44.4521595 38.59375,44.0778087 C38.7890635,43.7034579 38.8867188,43.2151815 38.8867188,42.6129649 L38.8867188,28.4039806 C38.8867188,27.8180401 38.7483738,27.293143 38.4716797,26.8292735 C38.1949856,26.365404 37.8613301,25.9951278 37.4707031,25.7184337 C37.1777329,25.5231202 36.8074567,25.3603614 36.3598633,25.2301524 C35.9122699,25.0999435 35.4199246,25.0104261 34.8828125,24.9615978 L34.8828125,23.1793712 L46.5283203,22.5446056 L46.8945312,22.9108165 L46.8945312,26.4508556 L46.9921875,26.4508556 C48.11524,25.1487657 49.3074481,24.1274543 50.5688477,23.3868907 C51.8302472,22.6463271 53.1445244,22.2760509 54.5117188,22.2760509 C56.0253982,22.2760509 57.2420201,22.7439824 58.1616211,23.6798595 C59.081222,24.6157366 59.5410156,25.8242206 59.5410156,27.3053478 Z M86.2207031,41.2213634 C85.6510388,42.1491024 84.9633829,43.0239309 84.1577148,43.8458751 C83.3520468,44.6678193 82.4365286,45.3717511 81.4111328,45.9576915 C80.3206326,46.5761842 79.2179418,47.0441157 78.1030273,47.3615001 C76.9881129,47.6788845 75.7063875,47.8375743 74.2578125,47.8375743 C71.8489463,47.8375743 69.7697028,47.4957809 68.0200195,46.8121837 C66.2703363,46.1285865 64.8258521,45.2089994 63.6865234,44.0533946 C62.5471948,42.8977899 61.6967802,41.534685 61.1352539,39.9640392 C60.5737277,38.3933933 60.2929688,36.688495 60.2929688,34.8492931 C60.2929688,33.1891285 60.5981415,31.5981614 61.2084961,30.0763439 C61.8188507,28.5545263 62.6855413,27.1995594 63.8085938,26.0114024 C64.9153701,24.8557977 66.3110267,23.9199347 67.9956055,23.2037853 C69.6801842,22.4876358 71.5641172,22.1295665 73.6474609,22.1295665 C75.9261182,22.1295665 77.7978442,22.4062565 79.2626953,22.9596446 C80.7275464,23.5130328 81.9400994,24.2779991 82.9003906,25.2545665 C83.8281296,26.1823055 84.5035786,27.2768584 84.9267578,28.5382579 C85.349937,29.7996575 85.5615234,31.1220726 85.5615234,32.5055431 L85.5615234,34.0924571 L69.0576172,34.0924571 C69.0576172,37.4290624 69.7005144,39.9680995 70.9863281,41.7096446 C72.2721418,43.4511898 74.3147646,44.3219493 77.1142578,44.3219493 C78.6442134,44.3219493 80.0195251,43.9028454 81.2402344,43.0646251 C82.4609436,42.2264048 83.5025999,41.1644037 84.3652344,39.8785899 L86.2207031,41.2213634 Z M76.8945312,31.9440196 C76.8945312,30.9674523 76.8457036,29.9664857 76.7480469,28.9410899 C76.6503901,27.9156942 76.4794934,27.0774864 76.2353516,26.4264415 C75.9586575,25.6614637 75.5802433,25.08367 75.1000977,24.6930431 C74.619952,24.3024161 74.0136755,24.1071056 73.28125,24.1071056 C72.0279885,24.1071056 71.027022,24.7418648 70.2783203,26.0114024 C69.5296187,27.28094 69.1227217,29.2910111 69.0576172,32.0416759 L76.8945312,31.9440196 Z M119.541016,47.0563243 L104.84375,47.0563243 L104.84375,45.2740978 C105.152996,45.2415455 105.527342,45.2008558 105.966797,45.1520274 C106.406252,45.1031991 106.739908,45.0218197 106.967773,44.9078868 C107.309572,44.7288495 107.55371,44.4684354 107.700195,44.1266368 C107.84668,43.7848382 107.919922,43.280286 107.919922,42.6129649 L107.919922,31.1871837 C107.919922,29.5270191 107.614749,28.2778454 107.004395,27.4396251 C106.39404,26.6014048 105.494798,26.1823009 104.306641,26.1823009 C103.655596,26.1823009 103.049319,26.2799562 102.487793,26.4752696 C101.926267,26.6705831 101.376956,26.955411 100.839844,27.3297618 C100.367836,27.6552843 99.989422,27.9889398 99.7045898,28.3307384 C99.4197577,28.672537 99.1796885,28.9736407 98.984375,29.2340587 L98.984375,42.3444103 C98.984375,42.9140746 99.0657544,43.390144 99.2285156,43.7726329 C99.3912769,44.1551218 99.6598289,44.4440187 100.03418,44.6393321 C100.294598,44.7858172 100.620115,44.9160243 101.010742,45.0299571 C101.401369,45.14389 101.783852,45.2252694 102.158203,45.2740978 L102.158203,47.0563243 L87.3144531,47.0563243 L87.3144531,45.2740978 C87.7213562,45.2415455 88.1323221,45.1967868 88.5473633,45.1398204 C88.9624044,45.082854 89.3164048,45.0055436 89.609375,44.9078868 C90.1302109,44.7288495 90.4882803,44.4521595 90.6835938,44.0778087 C90.8789072,43.7034579 90.9765625,43.2151815 90.9765625,42.6129649 L90.9765625,28.4039806 C90.9765625,27.8994208 90.8463555,27.4030065 90.5859375,26.9147228 C90.3255195,26.4264391 89.9837261,26.02768 89.5605469,25.7184337 C89.2675767,25.5231202 88.8973004,25.3603614 88.449707,25.2301524 C88.0021136,25.0999435 87.5097683,25.0104261 86.9726562,24.9615978 L86.9726562,23.1793712 L98.6181641,22.5446056 L98.984375,22.9108165 L98.984375,26.4508556 L99.0820312,26.4508556 C99.5377627,26.0439525 100.091143,25.5556761 100.742188,24.9860118 C101.393232,24.4163475 101.99544,23.952485 102.548828,23.5944103 C103.151045,23.2037833 103.940425,22.8701278 104.916992,22.5934337 C105.89356,22.3167396 106.935216,22.1783946 108.041992,22.1783946 C110.695,22.1783946 112.684726,22.931154 114.01123,24.4366954 C115.337734,25.9422368 116.000977,27.9401009 116.000977,30.4303478 L116.000977,42.3932384 C116.000977,42.9954549 116.090494,43.4755934 116.269531,43.8336681 C116.448569,44.1917428 116.782224,44.4765707 117.270508,44.6881603 C117.530926,44.8020931 117.852374,44.9160243 118.234863,45.0299571 C118.617352,45.14389 119.052732,45.2252694 119.541016,45.2740978 L119.541016,47.0563243 Z M152.128906,46.543629 L140.092773,47.2516368 L139.726562,46.9098399 L139.726562,44.6637462 L139.555664,44.6149181 C138.758134,45.4775526 137.679857,46.230312 136.320801,46.8732189 C134.961745,47.5161257 133.590502,47.8375743 132.207031,47.8375743 C128.919254,47.8375743 126.209321,46.6168834 124.077148,44.1754649 C121.944976,41.7340465 120.878906,38.576526 120.878906,34.7028087 C120.878906,31.2685467 122.071114,28.3226127 124.455566,25.8649181 C126.840018,23.4072235 129.724918,22.1783946 133.110352,22.1783946 C134.444994,22.1783946 135.698236,22.3289465 136.870117,22.6300548 C138.041998,22.9311631 138.977861,23.2851634 139.677734,23.6920665 L139.677734,15.7086681 C139.677734,15.1064515 139.555665,14.5408647 139.311523,14.0118907 C139.067382,13.4829167 138.741864,13.0719508 138.334961,12.7789806 C137.830401,12.4209059 137.199711,12.1645608 136.442871,12.0099376 C135.686031,11.8553144 134.925134,11.7454523 134.160156,11.6803478 L134.160156,9.8981212 L147.34375,9.26335557 L147.709961,9.65398057 L147.709961,41.6608165 C147.709961,42.2793092 147.811685,42.8001373 148.015137,43.2233165 C148.218588,43.6464957 148.548175,43.9801512 149.003906,44.2242931 C149.345705,44.4033304 149.846188,44.5335375 150.505371,44.6149181 C151.164554,44.6962987 151.705727,44.7451263 152.128906,44.7614024 L152.128906,46.543629 Z M139.677734,42.1979259 L139.677734,28.4039806 C139.563802,28.0296297 139.405112,27.6145948 139.20166,27.1588634 C138.998209,26.7031319 138.71745,26.2718211 138.359375,25.8649181 C138.033853,25.5231195 137.598473,25.2220157 137.053223,24.9615978 C136.507973,24.7011798 135.893558,24.5709728 135.209961,24.5709728 C133.582349,24.5709728 132.247727,25.4905599 131.206055,27.3297618 C130.164383,29.1689637 129.643555,31.7649664 129.643555,35.1178478 C129.643555,36.4362137 129.737141,37.6202839 129.924316,38.6700939 C130.111492,39.7199038 130.441078,40.6761117 130.913086,41.5387462 C131.385094,42.4013807 131.99137,43.0768297 132.731934,43.5651134 C133.472497,44.0533971 134.363602,44.2975353 135.405273,44.2975353 C136.398117,44.2975353 137.220049,44.1062937 137.871094,43.7238048 C138.522139,43.3413159 139.124346,42.8326947 139.677734,42.1979259 Z M167.895508,47.0563243 L152.46582,47.0563243 L152.46582,45.2740978 C152.889,45.2415455 153.304034,45.2008558 153.710938,45.1520274 C154.117841,45.1031991 154.467772,45.0218197 154.760742,44.9078868 C155.281578,44.7125733 155.647785,44.4318144 155.859375,44.0656017 C156.070965,43.6993889 156.176758,43.2151815 156.176758,42.6129649 L156.176758,28.4039806 C156.176758,27.8343163 156.046551,27.333833 155.786133,26.9025157 C155.525715,26.4711985 155.200197,26.125336 154.80957,25.8649181 C154.5166,25.6696046 154.073082,25.482432 153.479004,25.3033946 C152.884925,25.1243573 152.343752,25.0104261 151.855469,24.9615978 L151.855469,23.1793712 L163.818359,22.5446056 L164.18457,22.9108165 L164.18457,42.2955821 C164.18457,42.8652464 164.306639,43.3494538 164.550781,43.7482189 C164.794923,44.1469839 165.144854,44.4440187 165.600586,44.6393321 C165.926108,44.7858172 166.284178,44.9160243 166.674805,45.0299571 C167.065432,45.14389 167.472329,45.2252694 167.895508,45.2740978 L167.895508,47.0563243 Z M164.331055,13.7555431 C164.331055,14.9925284 163.854985,16.0463916 162.902832,16.9171642 C161.950679,17.7879367 160.823574,18.2233165 159.521484,18.2233165 C158.203118,18.2233165 157.067876,17.7879367 156.115723,16.9171642 C155.163569,16.0463916 154.6875,14.9925284 154.6875,13.7555431 C154.6875,12.5185577 155.163569,11.4606256 156.115723,10.5817149 C157.067876,9.7028043 158.203118,9.26335557 159.521484,9.26335557 C160.83985,9.26335557 161.971024,9.7028043 162.915039,10.5817149 C163.859054,11.4606256 164.331055,12.5185577 164.331055,13.7555431 Z"/>
      <g stroke="#E7713D" stroke-linecap="round" stroke-linejoin="round" stroke-width="6" transform="translate(32.999)">
        <path d="M1,7.83702126 C3.14397205,5.55801417 5.2879441,3.27900709 7.43191616,1" transform="rotate(-10 4.216 4.419)"/>
        <path d="M6.22570297,14.4724048 L8.63745447,14.4722005" transform="rotate(-10 7.432 14.472)"/>
      </g>
    </g>
    <g transform="translate(120 106)">
      <path fill="#25ACF5" fill-rule="nonzero" d="M30.5429668,18.9355119 C30.5429668,22.5976396 29.3344828,25.633091 26.9174785,28.0419572 C24.5004742,30.4508234 21.43654,31.6552385 17.725584,31.6552385 C16.2932852,31.6552385 15.0603873,31.5535142 14.0268535,31.3500627 C12.9933197,31.1466112 12.1184912,30.898404 11.4023418,30.6054338 C10.6536401,30.2961875 10.0555016,29.9910147 9.6079082,29.6899065 C9.16031481,29.3887982 8.80631445,29.140591 8.54589648,28.9452775 L5.05468554,32.1191057 L3.61425585,31.5575822 C3.69563647,30.3694253 3.76480895,29.0795619 3.82177538,27.6879533 C3.87874182,26.2963448 3.9072246,24.4205498 3.9072246,22.0605119 L3.9072246,-0.791050577 C3.9072246,-1.40954325 3.78108654,-1.98326798 3.52880663,-2.51224198 C3.27652673,-3.04121598 2.93880224,-3.44404398 2.51562304,-3.72073808 C2.2063767,-3.91605155 1.75472106,-4.08694828 1.16064257,-4.23343339 C0.566564081,-4.3799185 0.0172531679,-4.46943583 -0.487306647,-4.50198808 L-0.487306647,-6.28421464 L11.5732402,-6.91898026 L11.9394512,-6.52835526 L11.9394512,9.34078536 L12.0859355,9.34078536 C13.2740925,8.18518062 14.4947834,7.33883492 15.7480449,6.80172286 C17.0013064,6.2646108 18.2545491,5.9960588 19.5078105,5.9960588 C22.9257964,5.9960588 25.6194543,7.15978414 27.5888652,9.48726974 C29.5582761,11.8147553 30.5429668,14.9641379 30.5429668,18.9355119 Z M21.7783184,19.2284807 C21.7783184,17.9914953 21.684732,16.7992872 21.4975566,15.6518205 C21.3103812,14.5043538 20.9970706,13.4911804 20.5576152,12.6122697 C20.1181599,11.7333591 19.5403662,11.0294273 18.8242168,10.5004533 C18.1080674,9.97147933 17.221032,9.7069963 16.163084,9.7069963 C15.1702405,9.7069963 14.3483086,9.86975509 13.6972637,10.1952775 C13.0462187,10.5208 12.4602871,11.0009384 11.9394512,11.6357072 L11.9394512,25.8446916 C12.0371079,26.1702141 12.2202115,26.5974559 12.4887676,27.1264299 C12.7573236,27.6554039 13.0299446,28.0663698 13.3066387,28.35934 C13.6972656,28.7825192 14.1123005,29.1039679 14.5517559,29.3236955 C14.9912112,29.5434232 15.6096946,29.6532854 16.4072246,29.6532854 C18.0673892,29.6532854 19.3775974,28.7459051 20.3378887,26.9311174 C21.2981799,25.1163297 21.7783184,22.5488098 21.7783184,19.2284807 Z M64.3027324,30.3612932 L52.6572246,31.069301 L52.2910137,30.7275041 L52.2910137,27.5292619 L52.1445293,27.5292619 C51.5911411,28.0338217 51.0499681,28.5261671 50.5209941,29.0063127 C49.9920201,29.4864583 49.3613298,29.9218381 48.6289043,30.312465 C47.798822,30.7519204 47.0135109,31.0774379 46.2729473,31.2890275 C45.5323837,31.5006171 44.4541067,31.6064104 43.038084,31.6064104 C40.5803894,31.6064104 38.6964564,30.8658579 37.3862285,29.3847307 C36.0760006,27.9036035 35.4208965,25.812153 35.4208965,23.1103166 L35.4208965,12.1239885 C35.4208965,11.4892197 35.2988274,10.9724605 35.0546855,10.5736955 C34.8105437,10.1749305 34.4850261,9.82093014 34.078123,9.5116838 C33.7526006,9.26754195 33.3294277,9.09257625 32.8085918,8.98678145 C32.2877559,8.88098665 31.8157554,8.81181417 31.3925762,8.77926192 L31.3925762,6.99703536 L43.2333965,6.36226974 L43.5019512,6.72848067 L43.5019512,22.9638322 C43.5019512,24.6402729 43.8233998,25.8772397 44.4663066,26.6747697 C45.1092135,27.4722998 45.9921799,27.8710588 47.1152324,27.8710588 C48.2708372,27.8710588 49.3084244,27.569955 50.2280254,26.9677385 C51.1476263,26.3655219 51.8190063,25.7226247 52.2421855,25.0390275 L52.2421855,11.8798479 C52.2421855,11.3264597 52.1363923,10.8300454 51.9248027,10.39059 C51.7132131,9.95113473 51.4039714,9.59306539 50.9970684,9.3163713 C50.7040981,9.12105782 50.2849943,8.99085079 49.7397441,8.9257463 C49.194494,8.86064181 48.6370452,8.81181417 48.0673809,8.77926192 L48.0673809,6.99703536 L59.9082012,6.36226974 L60.2744121,6.72848067 L60.2744121,25.5761369 C60.2744121,26.1458012 60.3883433,26.6300086 60.616209,27.0287736 C60.8440747,27.4275387 61.1777302,27.7652631 61.6171855,28.0419572 C61.9264319,28.2372707 62.3292599,28.3715467 62.8256816,28.4447893 C63.3221034,28.5180318 63.8144487,28.5627905 64.3027324,28.5790666 L64.3027324,30.3612932 Z M89.9570293,9.53609786 C91.1614624,10.6591504 92.0810496,12.0019104 92.7158184,13.5644182 C93.3505872,15.126926 93.6679668,16.8196174 93.6679668,18.6425432 C93.6679668,20.4491928 93.3546561,22.1540911 92.7280254,23.7572893 C92.1013946,25.3604874 91.1858765,26.7317302 89.9814434,27.8710588 C88.6956296,29.091768 87.161628,30.0276311 85.3793926,30.678676 C83.5971571,31.3297209 81.5586033,31.6552385 79.2636699,31.6552385 C77.2779829,31.6552385 75.4510155,31.3704106 73.7827129,30.8007463 C72.1144103,30.231082 70.6373743,29.3765983 69.3515605,28.2372697 C68.1145752,27.1467695 67.1380225,25.7999405 66.421873,24.1967424 C65.7057236,22.5935443 65.3476543,20.7991286 65.3476543,18.8134416 C65.3476543,16.8603068 65.660965,15.1228568 66.2875957,13.6010393 C66.9142264,12.0792218 67.8541584,10.7242548 69.1074199,9.53609786 C70.311853,8.39676925 71.797027,7.51380282 73.5629863,6.88717208 C75.3289457,6.26054134 77.302396,5.94723067 79.4833965,5.94723067 C81.7620537,5.94723067 83.7680558,6.26054134 85.5014629,6.88717208 C87.23487,7.51380282 88.7200439,8.39676925 89.9570293,9.53609786 Z M83.7070293,26.4550432 C84.065104,25.5435803 84.329587,24.4368205 84.5004863,23.1347307 C84.6713856,21.8326408 84.756834,20.3189841 84.756834,18.593715 C84.756834,17.4543864 84.6754546,16.1523161 84.5126934,14.687465 C84.3499321,13.222614 84.1057939,12.0670266 83.7802715,11.2206682 C83.3896445,10.1952724 82.8484716,9.38961642 82.1567363,8.80367599 C81.4650011,8.21773556 80.5901726,7.92476974 79.5322246,7.92476974 C78.3766199,7.92476974 77.4529637,8.24214937 76.7612285,8.87691817 C76.0694933,9.51168697 75.5364582,10.3336189 75.1621074,11.3427385 C74.8203088,12.2704775 74.5843086,13.3568924 74.4540996,14.6020158 C74.3238906,15.8471392 74.2587871,17.1451406 74.2587871,18.4960588 C74.2587871,20.2701562 74.3157527,21.7390543 74.4296855,22.9027971 C74.5436184,24.0665399 74.8203083,25.2343342 75.2597637,26.406215 C75.6341145,27.4153347 76.1712185,28.2128527 76.8710918,28.7987932 C77.5709651,29.3847336 78.4580005,29.6776994 79.5322246,29.6776994 C80.508792,29.6776994 81.3469997,29.4050785 82.046873,28.8598283 C82.7467463,28.3145782 83.3001262,27.5129912 83.7070293,26.4550432 Z M127.793943,30.8739885 L113.096678,30.8739885 L113.096678,29.0917619 C113.405924,29.0592097 113.780269,29.01852 114.219725,28.9696916 C114.65918,28.9208632 114.992835,28.8394838 115.220701,28.725551 C115.5625,28.5465136 115.806638,28.2860996 115.953123,27.944301 C116.099608,27.6025024 116.17285,27.0979502 116.17285,26.4306291 L116.17285,15.0048479 C116.17285,13.3446833 115.867677,12.0955096 115.257322,11.2572893 C114.646968,10.4190689 113.747725,9.99996505 112.559568,9.99996505 C111.908523,9.99996505 111.302247,10.0976203 110.740721,10.2929338 C110.179194,10.4882473 109.629884,10.7730752 109.092771,11.147426 C108.620764,11.4729484 108.24235,11.806604 107.957518,12.1484025 C107.672685,12.4902011 107.432616,12.7913049 107.237303,13.0517229 L107.237303,26.1620744 C107.237303,26.7317387 107.318682,27.2078082 107.481443,27.5902971 C107.644205,27.972786 107.912757,28.2616828 108.287107,28.4569963 C108.547525,28.6034814 108.873043,28.7336884 109.26367,28.8476213 C109.654297,28.9615542 110.03678,29.0429336 110.411131,29.0917619 L110.411131,30.8739885 L95.5673809,30.8739885 L95.5673809,29.0917619 C95.9742839,29.0592097 96.3852499,29.014451 96.800291,28.9574846 C97.2153321,28.9005181 97.5693325,28.8232077 97.8623027,28.725551 C98.3831387,28.5465136 98.741208,28.2698237 98.9365215,27.8954729 C99.131835,27.521122 99.2294902,27.0328457 99.2294902,26.4306291 L99.2294902,12.2216447 C99.2294902,11.7170849 99.0992832,11.2206706 98.8388652,10.7323869 C98.5784473,10.2441032 98.2366538,9.8453442 97.8134746,9.53609786 C97.5205044,9.34078438 97.1502281,9.1780256 96.7026348,9.04781661 C96.2550414,8.91760763 95.762696,8.82809029 95.225584,8.77926192 L95.225584,6.99703536 L106.871092,6.36226974 L107.237303,6.72848067 L107.237303,10.2685197 L107.334959,10.2685197 C107.79069,9.86161666 108.34407,9.37334029 108.995115,8.80367599 C109.64616,8.23401168 110.248368,7.77014913 110.801756,7.41207442 C111.403972,7.02144747 112.193353,6.68779195 113.16992,6.41109786 C114.146487,6.13440377 115.188144,5.9960588 116.29492,5.9960588 C118.947928,5.9960588 120.937654,6.7488182 122.264158,8.25435958 C123.590662,9.75990096 124.253904,11.7577651 124.253904,14.2480119 L124.253904,26.2109025 C124.253904,26.8131191 124.343422,27.2932575 124.522459,27.6513322 C124.701496,28.0094069 125.035152,28.2942348 125.523436,28.5058244 C125.783854,28.6197573 126.105302,28.7336884 126.487791,28.8476213 C126.87028,28.9615542 127.30566,29.0429336 127.793943,29.0917619 L127.793943,30.8739885 Z M155.059568,25.0390275 C154.489904,25.9667666 153.802248,26.8415951 152.99658,27.6635393 C152.190912,28.4854835 151.275394,29.1894152 150.249998,29.7753557 C149.159498,30.3938483 148.056807,30.8617799 146.941893,31.1791643 C145.826978,31.4965487 144.545253,31.6552385 143.096678,31.6552385 C140.687812,31.6552385 138.608568,31.313445 136.858885,30.6298479 C135.109202,29.9462507 133.664717,29.0266635 132.525389,27.8710588 C131.38606,26.7154541 130.535645,25.3523492 129.974119,23.7817033 C129.412593,22.2110575 129.131834,20.5061591 129.131834,18.6669572 C129.131834,17.0067927 129.437007,15.4158255 130.047361,13.894008 C130.657716,12.3721905 131.524406,11.0172236 132.647459,9.82906661 C133.754235,8.67346187 135.149892,7.73759884 136.834471,7.02144942 C138.519049,6.30530001 140.402982,5.94723067 142.486326,5.94723067 C144.764983,5.94723067 146.636709,6.22392061 148.101561,6.7773088 C149.566412,7.33069698 150.778965,8.09566329 151.739256,9.07223067 C152.666995,9.99996969 153.342444,11.0945225 153.765623,12.3559221 C154.188802,13.6173216 154.400389,14.9397368 154.400389,16.3232072 L154.400389,17.9101213 L137.896482,17.9101213 C137.896482,21.2467265 138.53938,23.7857636 139.825193,25.5273088 C141.111007,27.268854 143.15363,28.1396135 145.953123,28.1396135 C147.483079,28.1396135 148.85839,27.7205096 150.0791,26.8822893 C151.299809,26.0440689 152.341465,24.9820678 153.2041,23.6962541 L155.059568,25.0390275 Z M145.733396,15.7616838 C145.733396,14.7851164 145.684569,13.7841499 145.586912,12.7587541 C145.489255,11.7333584 145.318359,10.8951506 145.074217,10.2441057 C144.797523,9.47912789 144.419109,8.90133419 143.938963,8.51070724 C143.458817,8.12008028 142.852541,7.92476974 142.120115,7.92476974 C140.866854,7.92476974 139.865887,8.55952901 139.117186,9.82906661 C138.368484,11.0986042 137.961587,13.1086753 137.896482,15.85934 L145.733396,15.7616838 Z"/>
      <g stroke="#E7713D" stroke-linecap="round" stroke-linejoin="round" stroke-width="6" transform="scale(-1 1) rotate(80 -34.76 1.781)">
        <path d="M4.21828025,11.3790405 C7.20710105,8.25269367 10.1959219,5.12634684 13.1847427,2" transform="rotate(30 8.702 6.69)"/>
        <path d="M1,20.3993998 L4.6494405,20.4001824" transform="rotate(30 2.825 20.4)"/>
      </g>
    </g>
    <g transform="translate(142 170)">
      <path fill="#25ACF5" fill-rule="nonzero" d="M33.9824238,56.4309804 L21.946291,57.1389882 L21.5800801,56.7971913 L21.5800801,54.5510976 L21.4091816,54.5022694 C20.6116516,55.364904 19.5333746,56.1176633 18.1743184,56.7605702 C16.8152621,57.4034771 15.4440193,57.7249257 14.0605488,57.7249257 C10.772772,57.7249257 8.06283814,56.5042348 5.93066602,54.0628163 C3.7984939,51.6213978 2.73242383,48.4638773 2.73242383,44.5901601 C2.73242383,41.1558981 3.92463196,38.209964 6.30908399,35.7522694 C8.69353602,33.2945748 11.5784356,32.065746 14.9638691,32.065746 C16.2985112,32.065746 17.5517539,32.2162979 18.7236348,32.5174061 C19.8955156,32.8185144 20.8313787,33.1725148 21.531252,33.5794179 L21.531252,25.5960194 C21.531252,24.9938029 21.4091829,24.4282161 21.165041,23.8992421 C20.9208992,23.3702681 20.5953816,22.9593021 20.1884785,22.6663319 C19.6839187,22.3082572 19.0532284,22.0519121 18.2963887,21.897289 C17.539549,21.7426658 16.7786516,21.6328036 16.0136738,21.5676991 L16.0136738,19.7854726 L29.1972676,19.1507069 L29.5634785,19.5413319 L29.5634785,51.5481679 C29.5634785,52.1666605 29.6652028,52.6874887 29.8686543,53.1106679 C30.0721058,53.5338471 30.4016924,53.8675026 30.8574238,54.1116444 C31.1992224,54.2906818 31.6997057,54.4208888 32.3588887,54.5022694 C33.0180717,54.58365 33.5592446,54.6324777 33.9824238,54.6487538 L33.9824238,56.4309804 Z M21.531252,52.0852772 L21.531252,38.2913319 C21.4173191,37.9169811 21.2586293,37.5019462 21.0551777,37.0462147 C20.8517262,36.5904833 20.5709673,36.1591725 20.2128926,35.7522694 C19.8873701,35.4104708 19.4519904,35.1093671 18.9067402,34.8489491 C18.3614901,34.5885311 17.7470757,34.4583241 17.0634785,34.4583241 C15.4358662,34.4583241 14.1012441,35.3779113 13.0595723,37.2171132 C12.0179004,39.0563151 11.4970723,41.6523178 11.4970723,45.0051991 C11.4970723,46.3235651 11.5906586,47.5076353 11.777834,48.5574452 C11.9650094,49.6072551 12.294596,50.563463 12.7666035,51.4260976 C13.2386111,52.2887321 13.8448876,52.964181 14.5854512,53.4524647 C15.3260148,53.9407484 16.2171191,54.1848866 17.258791,54.1848866 C18.2516345,54.1848866 19.0735664,53.993645 19.7246113,53.6111561 C20.3756563,53.2286673 20.9778638,52.720046 21.531252,52.0852772 Z M60.5644551,51.1087147 C59.9947908,52.0364538 59.3071349,52.9112822 58.5014668,53.7332265 C57.6957987,54.5551707 56.7802805,55.2591024 55.7548848,55.8450429 C54.6643845,56.4635355 53.5616937,56.9314671 52.4467793,57.2488515 C51.3318649,57.5662359 50.0501394,57.7249257 48.6015645,57.7249257 C46.1926982,57.7249257 44.1134547,57.3831322 42.3637715,56.6995351 C40.6140883,56.0159379 39.169604,55.0963507 38.0302754,53.940746 C36.8909468,52.7851413 36.0405321,51.4220364 35.4790059,49.8513905 C34.9174796,48.2807446 34.6367207,46.5758463 34.6367207,44.7366444 C34.6367207,43.0764799 34.9418934,41.4855127 35.5522481,39.9636952 C36.1626027,38.4418777 37.0292932,37.0869108 38.1523457,35.8987538 C39.2591221,34.7431491 40.6547787,33.807286 42.3393574,33.0911366 C44.0239362,32.3749872 45.9078691,32.0169179 47.9912129,32.0169179 C50.2698701,32.0169179 52.1415962,32.2936078 53.6064473,32.846996 C55.0712983,33.4003842 56.2838513,34.1653505 57.2441426,35.1419179 C58.1718816,36.0696569 58.8473306,37.1642097 59.2705098,38.4256093 C59.693689,39.6870088 59.9052754,41.009424 59.9052754,42.3928944 L59.9052754,43.9798085 L43.4013691,43.9798085 C43.4013691,47.3164137 44.0442664,49.8554508 45.3300801,51.596996 C46.6158938,53.3385412 48.6585166,54.2093007 51.4580098,54.2093007 C52.9879653,54.2093007 54.3632771,53.7901968 55.5839863,52.9519765 C56.8046956,52.1137561 57.8463518,51.051755 58.7089863,49.7659413 L60.5644551,51.1087147 Z M51.2382832,41.831371 C51.2382832,40.8548036 51.1894556,39.8538371 51.0917988,38.8284413 C50.9941421,37.8030456 50.8232454,36.9648378 50.5791035,36.3137929 C50.3024094,35.5488151 49.9239952,34.9710214 49.4438496,34.5803944 C48.963704,34.1897675 48.3574275,33.9944569 47.625002,33.9944569 C46.3717405,33.9944569 45.3707739,34.6292162 44.6220723,35.8987538 C43.8733706,37.1682914 43.4664736,39.1783624 43.4013691,41.9290272 L51.2382832,41.831371 Z M75.5986348,57.7249257 C73.3362537,57.7249257 71.3383895,57.3953391 69.6049824,56.7361561 C67.8715753,56.0769732 66.4433669,55.1777309 65.3203145,54.0384022 C64.197262,52.8827975 63.3590542,51.5156237 62.805666,49.9368397 C62.2522778,48.3580558 61.9755879,46.6409506 61.9755879,44.7854726 C61.9755879,43.0927558 62.3133124,41.4814437 62.9887715,39.9514882 C63.6642306,38.4215326 64.5797488,37.0787726 65.7353535,35.9231679 C66.9235105,34.7350109 68.4005465,33.7869409 70.1665059,33.0789296 C71.9324652,32.3709182 73.8815017,32.0169179 76.0136738,32.0169179 C79.0084805,32.0169179 81.3766209,32.5825047 83.118166,33.7136952 C84.8597112,34.8448858 85.7304707,36.3707494 85.7304707,38.2913319 C85.7304707,39.4632128 85.421229,40.4072138 84.8027363,41.1233632 C84.1842437,41.8395126 83.1181736,42.1975819 81.6044941,42.1975819 C80.3837849,42.1975819 79.3624735,41.9046161 78.5405293,41.3186757 C77.7185851,40.7327352 77.3076191,39.9677689 77.3076191,39.0237538 C77.3076191,38.2262238 77.4378262,37.4368436 77.6982441,36.6555897 C77.9586621,35.8743358 78.113283,35.2802663 78.1621113,34.8733632 C77.983074,34.580393 77.7552117,34.3565996 77.4785176,34.2019765 C77.2018235,34.0473533 76.7705127,33.9700429 76.1845723,33.9700429 C75.4521467,33.9700429 74.7848357,34.1409396 74.1826191,34.4827382 C73.5804026,34.8245368 73.0188848,35.4267443 72.4980488,36.2893788 C71.993489,37.103185 71.590661,38.1936688 71.2895527,39.5608632 C70.9884445,40.9280575 70.8378926,42.5719213 70.8378926,44.4925038 C70.8378926,47.3896537 71.5174105,49.7252423 72.8764668,51.4993397 C74.2355231,53.2734372 75.859042,54.1604726 77.7470723,54.1604726 C79.5537219,54.1604726 80.9900682,53.7576446 82.0561543,52.9519765 C83.1222404,52.1463084 84.0703103,51.0029279 84.9003926,49.5218007 L86.7314473,50.7913319 C86.2268875,51.7841754 85.6246799,52.6915557 84.9248066,53.5134999 C84.2249334,54.3354441 83.3867256,55.0637897 82.4101582,55.6985585 C81.3847625,56.3658795 80.3431062,56.8704318 79.2851582,57.2122304 C78.2272102,57.554029 76.9983814,57.7249257 75.5986348,57.7249257 Z M102.400393,56.9436757 L86.9707051,56.9436757 L86.9707051,55.1614491 C87.3938843,55.1288969 87.8089192,55.0882072 88.2158223,55.0393788 C88.6227253,54.9905504 88.9726567,54.909171 89.265627,54.7952382 C89.7864629,54.5999247 90.1526702,54.3191658 90.3642598,53.952953 C90.5758494,53.5867403 90.6816426,53.1025329 90.6816426,52.5003163 L90.6816426,38.2913319 C90.6816426,37.7216676 90.5514356,37.2211843 90.2910176,36.7898671 C90.0305996,36.3585498 89.705082,36.0126874 89.3144551,35.7522694 C89.0214849,35.556956 88.5779672,35.3697833 87.9838887,35.190746 C87.3898102,35.0117086 86.8486372,34.8977775 86.3603535,34.8489491 L86.3603535,33.0667226 L98.3232441,32.4319569 L98.6894551,32.7981679 L98.6894551,52.1829335 C98.6894551,52.7525978 98.8115242,53.2368052 99.055666,53.6355702 C99.2998079,54.0343352 99.6497393,54.33137 100.105471,54.5266835 C100.430993,54.6731686 100.789063,54.8033756 101.179689,54.9173085 C101.570316,55.0312414 101.977213,55.1126207 102.400393,55.1614491 L102.400393,56.9436757 Z M98.8359395,23.6428944 C98.8359395,24.8798798 98.35987,25.9337429 97.4077168,26.8045155 C96.4555636,27.6752881 95.328459,28.1106679 94.0263691,28.1106679 C92.7080032,28.1106679 91.5727606,27.6752881 90.6206074,26.8045155 C89.6684542,25.9337429 89.1923848,24.8798798 89.1923848,23.6428944 C89.1923848,22.4059091 89.6684542,21.3479769 90.6206074,20.4690663 C91.5727606,19.5901557 92.7080032,19.1507069 94.0263691,19.1507069 C95.3447351,19.1507069 96.4759087,19.5901557 97.4199238,20.4690663 C98.363939,21.3479769 98.8359395,22.4059091 98.8359395,23.6428944 Z M114.700197,57.7737538 C113.121413,57.7737538 111.579274,57.5418225 110.073732,57.077953 C108.568191,56.6140835 107.400397,56.1217382 106.570314,55.6009022 L105.837893,57.2610585 L103.933596,57.2610585 L103.616213,48.1546132 L105.398439,48.1546132 C105.642581,48.8870387 106.049478,49.7130396 106.619143,50.6326405 C107.188807,51.5522415 107.839842,52.3782423 108.572268,53.1106679 C109.337245,53.8430934 110.212074,54.4615768 111.196779,54.9661366 C112.181485,55.4706964 113.235348,55.7229726 114.3584,55.7229726 C115.839528,55.7229726 116.942218,55.4340757 117.666506,54.8562733 C118.390793,54.278471 118.752932,53.3873666 118.752932,52.1829335 C118.752932,51.5318886 118.590173,50.9947846 118.26465,50.5716054 C117.939128,50.1484262 117.491541,49.7822189 116.921877,49.4729726 C116.287108,49.1474501 115.591314,48.8707602 114.834475,48.6428944 C114.077635,48.4150287 113.145841,48.1383388 112.039064,47.8128163 C110.932288,47.4872938 109.984218,47.1577073 109.194826,46.8240468 C108.405434,46.4903863 107.587571,45.9654892 106.741213,45.2493397 C106.008787,44.6145709 105.422856,43.8496046 104.9834,42.9544179 C104.543945,42.0592311 104.324221,40.993161 104.324221,39.7561757 C104.324221,37.4612423 105.288567,35.6057921 107.217287,34.1897694 C109.146008,32.7737467 111.672838,32.065746 114.797854,32.065746 C116.278981,32.065746 117.642086,32.2162979 118.887209,32.5174061 C120.132332,32.8185144 121.178058,33.148101 122.024416,33.5061757 L122.537111,32.065746 L124.39258,32.065746 L124.783205,40.3909413 L123.049807,40.3909413 C122.480142,38.6982245 121.50359,37.2374644 120.120119,36.0086171 C118.736649,34.7797698 117.247406,34.1653554 115.652346,34.1653554 C114.399084,34.1653554 113.414394,34.4257694 112.698244,34.9466054 C111.982095,35.4674413 111.624025,36.1917179 111.624025,37.1194569 C111.624025,38.3564423 112.148922,39.2516156 113.198732,39.8050038 C114.248542,40.358392 115.71744,40.8792201 117.605471,41.3675038 C120.518897,42.1162055 122.651037,43.1375169 124.001955,44.4314686 C125.352873,45.7254204 126.028322,47.3733532 126.028322,49.3753163 C126.028322,52.0446005 124.982597,54.1116371 122.891115,55.5764882 C120.799633,57.0413393 118.069355,57.7737538 114.700197,57.7737538 Z M143.210939,56.9436757 L127.781252,56.9436757 L127.781252,55.1614491 C128.204431,55.1288969 128.619466,55.0882072 129.026369,55.0393788 C129.433272,54.9905504 129.783204,54.909171 130.076174,54.7952382 C130.59701,54.5999247 130.963217,54.3191658 131.174807,53.952953 C131.386396,53.5867403 131.492189,53.1025329 131.492189,52.5003163 L131.492189,38.2913319 C131.492189,37.7216676 131.361982,37.2211843 131.101564,36.7898671 C130.841146,36.3585498 130.515629,36.0126874 130.125002,35.7522694 C129.832032,35.556956 129.388514,35.3697833 128.794436,35.190746 C128.200357,35.0117086 127.659184,34.8977775 127.1709,34.8489491 L127.1709,33.0667226 L139.133791,32.4319569 L139.500002,32.7981679 L139.500002,52.1829335 C139.500002,52.7525978 139.622071,53.2368052 139.866213,53.6355702 C140.110355,54.0343352 140.460286,54.33137 140.916018,54.5266835 C141.24154,54.6731686 141.599609,54.8033756 141.990236,54.9173085 C142.380863,55.0312414 142.78776,55.1126207 143.210939,55.1614491 L143.210939,56.9436757 Z M139.646486,23.6428944 C139.646486,24.8798798 139.170417,25.9337429 138.218264,26.8045155 C137.26611,27.6752881 136.139006,28.1106679 134.836916,28.1106679 C133.51855,28.1106679 132.383308,27.6752881 131.431154,26.8045155 C130.479001,25.9337429 130.002932,24.8798798 130.002932,23.6428944 C130.002932,22.4059091 130.479001,21.3479769 131.431154,20.4690663 C132.383308,19.5901557 133.51855,19.1507069 134.836916,19.1507069 C136.155282,19.1507069 137.286456,19.5901557 138.230471,20.4690663 C139.174486,21.3479769 139.646486,22.4059091 139.646486,23.6428944 Z M169.133791,35.6057851 C170.338224,36.7288375 171.257811,38.0715976 171.89258,39.6341054 C172.527349,41.1966132 172.844729,42.8893046 172.844729,44.7122304 C172.844729,46.51888 172.531418,48.2237783 171.904787,49.8269765 C171.278156,51.4301746 170.362638,52.8014174 169.158205,53.940746 C167.872391,55.1614552 166.33839,56.0973183 164.556154,56.7483632 C162.773919,57.3994081 160.735365,57.7249257 158.440432,57.7249257 C156.454745,57.7249257 154.627777,57.4400978 152.959475,56.8704335 C151.291172,56.3007692 149.814136,55.4462855 148.528322,54.3069569 C147.291337,53.2164567 146.314784,51.8696277 145.598635,50.2664296 C144.882485,48.6632315 144.524416,46.8688158 144.524416,44.8831288 C144.524416,42.929994 144.837727,41.192544 145.464357,39.6707265 C146.090988,38.148909 147.03092,36.793942 148.284182,35.6057851 C149.488615,34.4664564 150.973789,33.58349 152.739748,32.9568593 C154.505707,32.3302285 156.479158,32.0169179 158.660158,32.0169179 C160.938815,32.0169179 162.944818,32.3302285 164.678225,32.9568593 C166.411632,33.58349 167.896806,34.4664564 169.133791,35.6057851 Z M162.883791,52.5247304 C163.241866,51.6132675 163.506349,50.5065077 163.677248,49.2044179 C163.848147,47.902328 163.933596,46.3886713 163.933596,44.6634022 C163.933596,43.5240736 163.852216,42.2220033 163.689455,40.7571522 C163.526694,39.2923012 163.282556,38.1367138 162.957033,37.2903554 C162.566406,36.2649596 162.025233,35.4593036 161.333498,34.8733632 C160.641763,34.2874227 159.766934,33.9944569 158.708986,33.9944569 C157.553382,33.9944569 156.629725,34.3118366 155.93799,34.9466054 C155.246255,35.5813742 154.71322,36.403306 154.338869,37.4124257 C153.997071,38.3401647 153.76107,39.4265796 153.630861,40.671703 C153.500652,41.9168264 153.435549,43.2148278 153.435549,44.565746 C153.435549,46.3398434 153.492514,47.8087415 153.606447,48.9724843 C153.72038,50.1362271 153.99707,51.3040214 154.436525,52.4759022 C154.810876,53.4850219 155.34798,54.2825399 156.047854,54.8684804 C156.747727,55.4544208 157.634762,55.7473866 158.708986,55.7473866 C159.685554,55.7473866 160.523761,55.4747656 161.223635,54.9295155 C161.923508,54.3842654 162.476888,53.5826784 162.883791,52.5247304 Z M206.970705,56.9436757 L192.273439,56.9436757 L192.273439,55.1614491 C192.582686,55.1288969 192.957031,55.0882072 193.396486,55.0393788 C193.835942,54.9905504 194.169597,54.909171 194.397463,54.7952382 C194.739261,54.6162008 194.9834,54.3557868 195.129885,54.0139882 C195.27637,53.6721896 195.349611,53.1676373 195.349611,52.5003163 L195.349611,41.0745351 C195.349611,39.4143705 195.044439,38.1651968 194.434084,37.3269765 C193.823729,36.4887561 192.924487,36.0696522 191.73633,36.0696522 C191.085285,36.0696522 190.479009,36.1673075 189.917482,36.362621 C189.355956,36.5579345 188.806645,36.8427623 188.269533,37.2171132 C187.797526,37.5426356 187.419111,37.8762912 187.134279,38.2180897 C186.849447,38.5598883 186.609378,38.8609921 186.414064,39.1214101 L186.414064,52.2317616 C186.414064,52.8014259 186.495444,53.2774954 186.658205,53.6599843 C186.820966,54.0424732 187.089518,54.33137 187.463869,54.5266835 C187.724287,54.6731686 188.049805,54.8033756 188.440432,54.9173085 C188.831059,55.0312414 189.213542,55.1126207 189.587893,55.1614491 L189.587893,56.9436757 L174.744143,56.9436757 L174.744143,55.1614491 C175.151046,55.1288969 175.562012,55.0841382 175.977053,55.0271718 C176.392094,54.9702053 176.746094,54.8928949 177.039064,54.7952382 C177.5599,54.6162008 177.91797,54.3395109 178.113283,53.9651601 C178.308597,53.5908092 178.406252,53.1025329 178.406252,52.5003163 L178.406252,38.2913319 C178.406252,37.7867721 178.276045,37.2903578 178.015627,36.8020741 C177.755209,36.3137904 177.413416,35.9150314 176.990236,35.6057851 C176.697266,35.4104716 176.32699,35.2477128 175.879396,35.1175038 C175.431803,34.9872948 174.939458,34.8977775 174.402346,34.8489491 L174.402346,33.0667226 L186.047854,32.4319569 L186.414064,32.7981679 L186.414064,36.3382069 L186.511721,36.3382069 C186.967452,35.9313039 187.520832,35.4430275 188.171877,34.8733632 C188.822922,34.3036989 189.425129,33.8398363 189.978518,33.4817616 C190.580734,33.0911347 191.370114,32.7574791 192.346682,32.4807851 C193.323249,32.204091 194.364905,32.065746 195.471682,32.065746 C198.12469,32.065746 200.114416,32.8185054 201.44092,34.3240468 C202.767424,35.8295882 203.430666,37.8274523 203.430666,40.3176991 L203.430666,52.2805897 C203.430666,52.8828063 203.520183,53.3629447 203.699221,53.7210194 C203.878258,54.0790941 204.211914,54.363922 204.700197,54.5755116 C204.960615,54.6894445 205.282064,54.8033756 205.664553,54.9173085 C206.047042,55.0312414 206.482421,55.1126207 206.970705,55.1614491 L206.970705,56.9436757 Z M223.4209,56.9436757 L207.991213,56.9436757 L207.991213,55.1614491 C208.414392,55.1288969 208.829427,55.0882072 209.23633,55.0393788 C209.643233,54.9905504 209.993165,54.909171 210.286135,54.7952382 C210.806971,54.5999247 211.173178,54.3191658 211.384768,53.952953 C211.596357,53.5867403 211.70215,53.1025329 211.70215,52.5003163 L211.70215,38.2913319 C211.70215,37.7216676 211.571943,37.2211843 211.311525,36.7898671 C211.051107,36.3585498 210.72559,36.0126874 210.334963,35.7522694 C210.041993,35.556956 209.598475,35.3697833 209.004396,35.190746 C208.410318,35.0117086 207.869145,34.8977775 207.380861,34.8489491 L207.380861,33.0667226 L219.343752,32.4319569 L219.709963,32.7981679 L219.709963,52.1829335 C219.709963,52.7525978 219.832032,53.2368052 220.076174,53.6355702 C220.320316,54.0343352 220.670247,54.33137 221.125979,54.5266835 C221.451501,54.6731686 221.80957,54.8033756 222.200197,54.9173085 C222.590824,55.0312414 222.997721,55.1126207 223.4209,55.1614491 L223.4209,56.9436757 Z M219.856447,23.6428944 C219.856447,24.8798798 219.380378,25.9337429 218.428225,26.8045155 C217.476071,27.6752881 216.348967,28.1106679 215.046877,28.1106679 C213.728511,28.1106679 212.593268,27.6752881 211.641115,26.8045155 C210.688962,25.9337429 210.212893,24.8798798 210.212893,23.6428944 C210.212893,22.4059091 210.688962,21.3479769 211.641115,20.4690663 C212.593268,19.5901557 213.728511,19.1507069 215.046877,19.1507069 C216.365243,19.1507069 217.496417,19.5901557 218.440432,20.4690663 C219.384447,21.3479769 219.856447,22.4059091 219.856447,23.6428944 Z"/>
      <g stroke="#E7713D" stroke-linecap="round" stroke-linejoin="round" stroke-width="6" transform="scale(-1 1) rotate(-30 -52.666 258.877)">
        <path d="M4.21828025,11.3790405 C7.20710105,8.25269367 10.1959219,5.12634684 13.1847427,2" transform="rotate(30 8.702 6.69)"/>
        <path d="M1,20.3993998 L4.6494405,20.4001824" transform="rotate(30 2.825 20.4)"/>
      </g>
    </g>
    <g stroke="#E7713D" stroke-linecap="round" stroke-linejoin="round" stroke-width="6" transform="translate(59 133)">
      <path d="M51,0 C27.7617385,2.72201516 20,59 12,71 C4,83 -3,75 3,65 C20.7940809,35.3431985 52.7770784,64 70,85"/>
      <path d="M67.3432928,78 C65.7459114,80.9449781 70.1546342,93.609319 71.7164906,93.609319 C72.7577282,93.609319 75.9855646,89.42098 81.4,81.044302 C72.8618519,78.9501325 68.5927779,78.4265901 68.5927779,79.4736748 C68.5927779,81.044302 71.4041193,90.1539393 72.3412331,90.1539393 C72.9659757,90.1539393 72.4453569,87.1173935 70.7793768,81.044302 L72.9659757,91.0963156 L74.2154608,81.044302 L74.2154608,87.6409359 L77.3391735,83.2431799" transform="rotate(-70 74.2 85.805)"/>
    </g>
    <g stroke="#E7713D" stroke-linecap="round" stroke-linejoin="round" stroke-width="6" transform="translate(221.001 31.056)">
      <path d="M0.999025397,0.943675679 C29.9990254,14.9436757 21.974423,41.7716293 13.2032729,60.929972"/>
      <path d="M2.9990254,58.9650243 C5.6987723,68.6003028 7.56988897,73.4178303 8.61237539,73.4176068 C9.65486181,73.4173833 12.8874565,69.281809 18.3101594,61.010884 C8.79950555,58.2111055 4.0440678,57.3280764 4.04384611,58.3617967 C4.04351357,59.9123773 8.30036104,70.0063967 9.23859881,70.0061955 C9.86409066,70.0060614 9.11491496,66.4856711 6.9910717,59.4450244 L9.86389114,70.9364097 L11.1170031,61.0124262 L11.1156064,67.5248644 L14.1313199,61.3563534" transform="rotate(20 10.655 65.68)"/>
    </g>
    <g stroke="#E7713D" stroke-linecap="round" stroke-linejoin="round" stroke-width="6" transform="rotate(40 -93.854 627.96)">
      <path d="M0.902510277,14.5906202 C34.1591849,-32.8961526 78.494287,52.6105648 25.5354759,107.28364"/>
      <path d="M18.175483,103.548379 C20.8752299,113.183658 22.7463465,118.001185 23.7888329,118.000962 C24.8313194,118.000738 28.063914,113.865164 33.4866169,105.594239 C23.9759631,102.794461 19.2205254,101.911432 19.2203037,102.945152 C19.2199711,104.495732 23.4768186,114.589752 24.4150564,114.589551 C25.0405482,114.589417 24.2913725,111.069026 22.1675293,104.02838 L25.0403487,115.519765 L26.2934606,105.595781 L26.292064,112.10822 L29.3077775,105.939708" transform="rotate(30 25.831 110.264)"/>
    </g>
    <g transform="translate(0 287)">
      <path fill="#25ACF5" fill-rule="nonzero" d="M89.9501934,22.6728166 C91.6591863,23.8121452 93.0947188,25.3445192 94.256834,27.2699846 C95.4189492,29.1954499 95.999998,31.5823076 95.999998,34.4306291 C95.999998,39.443675 94.0574719,43.5394999 90.1723613,46.7182268 C86.2872508,49.8969536 81.3255491,51.4862932 75.2871074,51.4862932 C70.6158601,51.4862932 66.7194147,50.483699 63.5976543,48.4784807 C60.4758939,46.4732623 58.9150371,44.1034943 58.9150371,41.3691057 C58.9150371,39.751259 59.4334238,38.3840852 60.4702129,37.2675432 C61.5070019,36.1510011 62.8912654,35.5927385 64.6230449,35.5927385 C66.4231841,35.5927385 67.8985925,36.0769459 69.0493144,37.0453752 C70.2000363,38.0138045 70.7753887,39.3069231 70.7753887,40.9247697 C70.7753887,42.0640983 70.5817057,43.3059479 70.194334,44.6503557 C69.8069622,45.9947634 69.487955,47.0201438 69.2373027,47.7265275 C69.7841805,47.9316067 70.4221949,48.0854138 71.1513652,48.1879533 C71.8805355,48.2904929 72.5641225,48.3417619 73.2021465,48.3417619 C74.5009811,48.3417619 75.77701,48.0512375 77.0302715,47.4701799 C78.283533,46.8891223 79.3544858,46.0403352 80.2431621,44.9237932 C81.2685579,43.6477451 82.0432897,42.1381574 82.5673809,40.3949846 C83.091472,38.6518118 83.3535137,36.6751063 83.3535137,34.4648088 C83.3535137,31.2519021 82.4933335,28.6143959 80.7729473,26.5522111 C79.0525611,24.4900264 76.825207,23.4589494 74.0908184,23.4589494 C71.9716671,23.4589494 70.1943412,23.8861912 68.7587871,24.7406877 C67.3232331,25.5951842 66.035811,26.717406 64.8964824,28.1073869 L62.2304668,27.218715 L65.5458965,2.06246505 L94.4277324,2.06246505 L94.4277324,11.4960588 L68.006834,11.4960588 L66.6054668,22.7753557 C67.8359417,22.0006122 69.4195847,21.2600597 71.3564434,20.553676 C73.293302,19.8472922 75.571925,19.4941057 78.1923809,19.4941057 C80.2203858,19.4941057 82.2198775,19.7162714 84.190916,20.1606096 C86.1619545,20.6049477 88.0816944,21.4423417 89.9501934,22.6728166 Z M138.136717,38.8739885 L116.774412,38.8739885 L116.774412,36.3788713 C117.890954,36.3105116 118.82519,36.2136701 119.577146,36.088344 C120.329103,35.9630178 120.705076,35.7066727 120.705076,35.319301 C120.705076,35.1370084 120.608235,34.8521805 120.414549,34.4648088 C120.220863,34.0774371 119.975911,33.6444987 119.679686,33.1659807 C119.246741,32.4595969 118.500492,31.3430716 117.440916,29.8163713 C116.38134,28.289671 115.384443,26.8769247 114.450193,25.57809 C113.128572,27.1047904 112.02344,28.4149986 111.134764,29.5087541 C110.246087,30.6025096 109.311852,31.7760004 108.332029,33.0292619 C107.990231,33.4394202 107.750975,33.815393 107.614256,34.1571916 C107.477536,34.4989902 107.409178,34.7040663 107.409178,34.772426 C107.409178,35.2965171 107.779454,35.6952762 108.520018,35.968715 C109.260581,36.2421539 110.143548,36.3788713 111.168943,36.3788713 L111.168943,38.8739885 L97.2919902,38.8739885 L97.2919902,36.3788713 C99.1377026,35.9914996 100.613111,35.3762713 101.71826,34.5331682 C102.823409,33.690065 103.569658,33.0406574 103.957029,32.584926 C105.620449,30.8075733 107.027499,29.3321649 108.178221,28.1586565 C109.328943,26.985148 110.87271,25.3388428 112.809568,23.2196916 C111.510734,21.4195524 109.938484,19.2206812 108.092771,16.6230119 C106.247059,14.0253427 104.708989,11.8948301 103.478514,10.2314104 C102.863276,9.41109376 102.111331,8.77877586 101.222654,8.3344377 C100.333978,7.89009955 99.1832733,7.59957511 97.7705059,7.46285567 L97.7705059,4.96773849 L118.654295,4.96773849 L118.654295,7.46285567 C117.902338,7.46285567 117.161786,7.50842813 116.432615,7.59957442 C115.703445,7.69072071 115.338865,7.85022433 115.338865,8.07809005 C115.338865,8.26038263 115.395831,8.48824493 115.509764,8.7616838 C115.623697,9.03512267 115.771807,9.31995055 115.9541,9.61617599 C116.387044,10.3453463 117.070631,11.4162991 118.004881,12.8290666 C118.93913,14.2418341 119.941724,15.7229391 121.012693,17.272426 C122.038089,16.0191645 122.898269,14.9937841 123.59326,14.1962541 C124.28825,13.3987241 125.18261,12.2708057 126.276365,10.812465 C126.686524,10.2655873 126.942869,9.85543517 127.045408,9.5819963 C127.147948,9.30855743 127.199217,9.1376607 127.199217,9.06930099 C127.199217,8.68192926 126.954265,8.33443924 126.464354,8.02682052 C125.974442,7.71920179 125.011724,7.53121539 123.57617,7.46285567 L123.57617,4.96773849 L137.179686,4.96773849 L137.179686,7.46285567 C136.063143,7.64514825 134.980798,8.02112105 133.932615,8.59078536 C132.884433,9.16044967 131.790694,10.0491127 130.651365,11.256801 C128.874013,13.1025133 127.580894,14.4525975 126.771971,15.307094 C125.963047,16.1615904 124.624356,17.5800333 122.755857,19.562465 C123.80404,21.0435922 125.319324,23.196891 127.301756,26.022426 C129.284188,28.8479609 130.993155,31.229122 132.428709,33.1659807 C133.043946,34.0318704 133.73323,34.7382436 134.49658,35.2851213 C135.25993,35.831999 136.473297,36.1965787 138.136717,36.3788713 L138.136717,38.8739885 Z M168.925779,38.8739885 L140.727537,38.8739885 L140.727537,36.2763322 C141.411134,36.2307591 142.499177,36.1168279 143.991697,35.9345354 C145.484218,35.7522428 146.503902,35.5699529 147.050779,35.3876604 C147.734376,35.1597946 148.269853,34.7724287 148.657225,34.225551 C149.044596,33.6786733 149.238279,32.9267276 149.238279,31.9696916 L149.238279,10.2997697 L140.590818,10.2997697 L140.590818,7.05269942 L142.470701,7.05269942 C144.453133,7.05269942 146.167797,6.83623023 147.614744,6.40328536 C149.061691,5.97034049 150.263665,5.44625719 151.220701,4.83101974 C152.200524,4.19299571 153.003738,3.53219503 153.630369,2.84859786 C154.257,2.16500069 154.7526,1.56116559 155.117186,1.03707442 L161.132811,1.03707442 C161.064451,2.51820162 160.996092,4.24995514 160.927732,6.23238692 C160.859373,8.21481871 160.825193,9.99214469 160.825193,11.5644182 L160.825193,31.593715 C160.825193,32.4140316 161.001787,33.1261014 161.354979,33.7299455 C161.70817,34.3337897 162.215164,34.7952108 162.875975,35.1142229 C163.468425,35.3876617 164.459627,35.6383103 165.849607,35.866176 C167.239588,36.0940417 168.264969,36.2307591 168.925779,36.2763322 L168.925779,38.8739885 Z M209.592771,7.01851974 C211.324551,8.84144552 212.606276,10.920689 213.437986,13.2563127 C214.269696,15.5919364 214.685545,18.0129733 214.685545,20.5194963 C214.685545,23.5045373 214.167158,26.199009 213.130369,28.6029924 C212.09358,31.0069758 210.675137,33.0406468 208.874998,34.7040666 C206.983713,36.4358461 204.784841,37.7574475 202.278318,38.6689104 C199.771795,39.5803733 196.889337,40.0360979 193.630857,40.0360979 C190.190085,40.0360979 187.15382,39.5006214 184.521971,38.4296525 C181.890122,37.3586837 179.696947,35.9459374 177.942381,34.1913713 C176.210601,32.4595918 174.894697,30.4202242 173.994627,28.0732072 C173.094557,25.7261903 172.644529,23.2083118 172.644529,20.5194963 C172.644529,17.8534673 173.071771,15.3811613 173.926268,13.1025041 C174.780764,10.8238469 176.096669,8.76169303 177.874021,6.91598067 C179.605801,5.11584146 181.804672,3.67461239 184.470701,2.5922502 C187.13673,1.50988802 190.201478,0.968715048 193.665037,0.968715048 C197.242529,0.968715048 200.364243,1.52697769 203.030271,2.64351974 C205.6963,3.76006178 207.883779,5.21838053 209.592771,7.01851974 Z M199.9541,32.4823869 C200.61491,30.9556866 201.087724,29.2524159 201.372557,27.3725236 C201.657389,25.4926314 201.799803,23.2083118 201.799803,20.5194963 C201.799803,18.1041196 201.668782,15.9280346 201.406736,13.991176 C201.144691,12.0543173 200.706056,10.3339569 200.090818,8.83004317 C199.452794,7.28055626 198.609704,6.08427916 197.561521,5.24117599 C196.513339,4.39807281 195.225917,3.97652755 193.699217,3.97652755 C192.14973,3.97652755 190.850915,4.39237625 189.802732,5.22408614 C188.75455,6.05579603 187.900066,7.23498346 187.239256,8.7616838 C186.646805,10.1516647 186.213867,11.8549354 185.940428,13.8715471 C185.666989,15.8881587 185.530271,18.1041196 185.530271,20.5194963 C185.530271,23.0488058 185.649899,25.2021046 185.889158,26.9794572 C186.128417,28.7568099 186.567052,30.4657772 187.205076,32.1064104 C187.77474,33.5875376 188.595045,34.7838147 189.666014,35.6952775 C190.736983,36.6067404 192.058584,37.062465 193.630857,37.062465 C195.089198,37.062465 196.353834,36.6523129 197.424803,35.8319963 C198.495772,35.0116797 199.338862,33.8951544 199.9541,32.4823869 Z M256.924803,7.01851974 C258.656582,8.84144552 259.938308,10.920689 260.770018,13.2563127 C261.601727,15.5919364 262.017576,18.0129733 262.017576,20.5194963 C262.017576,23.5045373 261.499189,26.199009 260.4624,28.6029924 C259.425611,31.0069758 258.007168,33.0406468 256.207029,34.7040666 C254.315744,36.4358461 252.116873,37.7574475 249.61035,38.6689104 C247.103827,39.5803733 244.221368,40.0360979 240.962889,40.0360979 C237.522116,40.0360979 234.485851,39.5006214 231.854002,38.4296525 C229.222153,37.3586837 227.028978,35.9459374 225.274412,34.1913713 C223.542633,32.4595918 222.226728,30.4202242 221.326658,28.0732072 C220.426589,25.7261903 219.976561,23.2083118 219.976561,20.5194963 C219.976561,17.8534673 220.403802,15.3811613 221.258299,13.1025041 C222.112795,10.8238469 223.4287,8.76169303 225.206053,6.91598067 C226.937832,5.11584146 229.136703,3.67461239 231.802732,2.5922502 C234.468761,1.50988802 237.533509,0.968715048 240.997068,0.968715048 C244.57456,0.968715048 247.696274,1.52697769 250.362303,2.64351974 C253.028332,3.76006178 255.21581,5.21838053 256.924803,7.01851974 Z M247.286131,32.4823869 C247.946941,30.9556866 248.419756,29.2524159 248.704588,27.3725236 C248.98942,25.4926314 249.131834,23.2083118 249.131834,20.5194963 C249.131834,18.1041196 249.000813,15.9280346 248.738768,13.991176 C248.476722,12.0543173 248.038087,10.3339569 247.42285,8.83004317 C246.784826,7.28055626 245.941735,6.08427916 244.893553,5.24117599 C243.84537,4.39807281 242.557948,3.97652755 241.031248,3.97652755 C239.481761,3.97652755 238.182946,4.39237625 237.134764,5.22408614 C236.086581,6.05579603 235.232098,7.23498346 234.571287,8.7616838 C233.978836,10.1516647 233.545898,11.8549354 233.272459,13.8715471 C232.99902,15.8881587 232.862303,18.1041196 232.862303,20.5194963 C232.862303,23.0488058 232.98193,25.2021046 233.221189,26.9794572 C233.460448,28.7568099 233.899083,30.4657772 234.537107,32.1064104 C235.106772,33.5875376 235.927076,34.7838147 236.998045,35.6952775 C238.069014,36.6067404 239.390615,37.062465 240.962889,37.062465 C242.421229,37.062465 243.685865,36.6523129 244.756834,35.8319963 C245.827803,35.0116797 246.670893,33.8951544 247.286131,32.4823869 Z M304.256834,7.01851974 C305.988613,8.84144552 307.270339,10.920689 308.102049,13.2563127 C308.933759,15.5919364 309.349607,18.0129733 309.349607,20.5194963 C309.349607,23.5045373 308.831221,26.199009 307.794432,28.6029924 C306.757643,31.0069758 305.3392,33.0406468 303.539061,34.7040666 C301.647775,36.4358461 299.448904,37.7574475 296.942381,38.6689104 C294.435858,39.5803733 291.5534,40.0360979 288.29492,40.0360979 C284.854148,40.0360979 281.817882,39.5006214 279.186033,38.4296525 C276.554184,37.3586837 274.361009,35.9459374 272.606443,34.1913713 C270.874664,32.4595918 269.558759,30.4202242 268.658689,28.0732072 C267.75862,25.7261903 267.308592,23.2083118 267.308592,20.5194963 C267.308592,17.8534673 267.735834,15.3811613 268.59033,13.1025041 C269.444827,10.8238469 270.760731,8.76169303 272.538084,6.91598067 C274.269863,5.11584146 276.468735,3.67461239 279.134764,2.5922502 C281.800793,1.50988802 284.865541,0.968715048 288.3291,0.968715048 C291.906591,0.968715048 295.028305,1.52697769 297.694334,2.64351974 C300.360363,3.76006178 302.547841,5.21838053 304.256834,7.01851974 Z M294.618162,32.4823869 C295.278973,30.9556866 295.751787,29.2524159 296.036619,27.3725236 C296.321451,25.4926314 296.463865,23.2083118 296.463865,20.5194963 C296.463865,18.1041196 296.332844,15.9280346 296.070799,13.991176 C295.808753,12.0543173 295.370118,10.3339569 294.754881,8.83004317 C294.116857,7.28055626 293.273766,6.08427916 292.225584,5.24117599 C291.177402,4.39807281 289.88998,3.97652755 288.363279,3.97652755 C286.813792,3.97652755 285.514977,4.39237625 284.466795,5.22408614 C283.418613,6.05579603 282.564129,7.23498346 281.903318,8.7616838 C281.310867,10.1516647 280.877929,11.8549354 280.60449,13.8715471 C280.331051,15.8881587 280.194334,18.1041196 280.194334,20.5194963 C280.194334,23.0488058 280.313962,25.2021046 280.553221,26.9794572 C280.79248,28.7568099 281.231115,30.4657772 281.869139,32.1064104 C282.438803,33.5875376 283.259107,34.7838147 284.330076,35.6952775 C285.401045,36.6067404 286.722646,37.062465 288.29492,37.062465 C289.753261,37.062465 291.017896,36.6523129 292.088865,35.8319963 C293.159834,35.0116797 294.002925,33.8951544 294.618162,32.4823869 Z"/>
      <rect width="35" height="35" x="5" y="8" fill="#FFF" stroke="#E7713D" stroke-width="4" rx="4"/>
      <path stroke="#021B44" stroke-linecap="round" stroke-linejoin="round" stroke-width="8" d="M3,44 C17,29 29,11 43,0" transform="matrix(-1 0 0 1 46 0)"/>
      <path stroke="#021B44" stroke-linecap="round" stroke-linejoin="round" stroke-width="8" d="M0,47 C14,32 29,16 43,5"/>
    </g>
  </g>
</svg>
